G04 #@! TF.FileFunction,Soldermask,Bot*
%FSLAX46Y46*%
G04 Gerber Fmt 4.6, Leading zero omitted, Abs format (unit mm)*
G04 Created by KiCad (PCBNEW (2015-07-01 BZR 5850)-product) date Fri Aug 28 18:28:50 2015*
%MOMM*%
G01*
G04 APERTURE LIST*
%ADD10C,0.050000*%
%ADD11C,0.100000*%
%ADD12C,1.200000*%
%ADD13O,2.032000X1.727200*%
%ADD14R,2.032000X1.727200*%
%ADD15C,4.500000*%
%ADD16R,2.150000X1.500000*%
%ADD17C,0.200000*%
G04 APERTURE END LIST*
D10*
D11*
X28000000Y-37000000D02*
X28000000Y-26000000D01*
X54000000Y-38000000D02*
X29000000Y-38000000D01*
X55000000Y-26000000D02*
X55000000Y-37000000D01*
X29000000Y-25000000D02*
X54000000Y-25000000D01*
X55000000Y-26000000D02*
G75*
G03X54000000Y-25000000I-1000000J0D01*
G01*
X54000000Y-38000000D02*
G75*
G03X55000000Y-37000000I0J1000000D01*
G01*
X28000000Y-37000000D02*
G75*
G03X29000000Y-38000000I1000000J0D01*
G01*
X29000000Y-25000000D02*
G75*
G03X28000000Y-26000000I0J-1000000D01*
G01*
D12*
X33800000Y-34600000D03*
X50300000Y-32800000D03*
X48700000Y-32800000D03*
X36800000Y-29200000D03*
X39300000Y-30800000D03*
X33800000Y-36200000D03*
X39300000Y-29300000D03*
X36800000Y-30800000D03*
X45800000Y-30100000D03*
X44200000Y-30100000D03*
D13*
X53750000Y-34040000D03*
D14*
X53750000Y-31500000D03*
D13*
X53750000Y-28960000D03*
D12*
X38000000Y-30000000D03*
D15*
X31000000Y-31500000D03*
D16*
X48250000Y-34750000D03*
X48250000Y-28250000D03*
D17*
G36*
X44300000Y-37900000D02*
X28100000Y-37900000D01*
X28100000Y-25100000D01*
X44300000Y-25100000D01*
X44300000Y-37900000D01*
X44300000Y-37900000D01*
G37*
X44300000Y-37900000D02*
X28100000Y-37900000D01*
X28100000Y-25100000D01*
X44300000Y-25100000D01*
X44300000Y-37900000D01*
M02*
