G04 #@! TF.FileFunction,Copper,L1,Top,Signal*
%FSLAX46Y46*%
G04 Gerber Fmt 4.6, Leading zero omitted, Abs format (unit mm)*
G04 Created by KiCad (PCBNEW (2015-07-01 BZR 5850)-product) date Fri Aug 28 18:28:50 2015*
%MOMM*%
G01*
G04 APERTURE LIST*
%ADD10C,0.050000*%
%ADD11C,0.100000*%
%ADD12C,1.200000*%
%ADD13R,4.300000X2.400000*%
%ADD14R,2.350000X2.770000*%
%ADD15R,1.250000X1.500000*%
%ADD16O,2.032000X1.727200*%
%ADD17R,2.032000X1.727200*%
%ADD18O,0.609600X1.473200*%
%ADD19R,1.300000X1.500000*%
%ADD20R,3.500120X1.800860*%
%ADD21C,4.500000*%
%ADD22C,0.800000*%
%ADD23C,0.250000*%
%ADD24C,0.500000*%
%ADD25C,0.200000*%
G04 APERTURE END LIST*
D10*
D11*
X28000000Y-37000000D02*
X28000000Y-26000000D01*
X54000000Y-38000000D02*
X29000000Y-38000000D01*
X55000000Y-26000000D02*
X55000000Y-37000000D01*
X29000000Y-25000000D02*
X54000000Y-25000000D01*
X55000000Y-26000000D02*
G75*
G03X54000000Y-25000000I-1000000J0D01*
G01*
X54000000Y-38000000D02*
G75*
G03X55000000Y-37000000I0J1000000D01*
G01*
X28000000Y-37000000D02*
G75*
G03X29000000Y-38000000I1000000J0D01*
G01*
X29000000Y-25000000D02*
G75*
G03X28000000Y-26000000I0J-1000000D01*
G01*
D12*
X33800000Y-34600000D03*
X50300000Y-32800000D03*
X48700000Y-32800000D03*
X36800000Y-29200000D03*
X39300000Y-30800000D03*
X33800000Y-36200000D03*
X39300000Y-29300000D03*
X36800000Y-30800000D03*
X45800000Y-30100000D03*
X44200000Y-30100000D03*
D13*
X49500000Y-36040000D03*
X49500000Y-30960000D03*
D14*
X45000000Y-27180000D03*
X45000000Y-32320000D03*
D15*
X42000000Y-31250000D03*
X42000000Y-28750000D03*
D16*
X53750000Y-34040000D03*
D17*
X53750000Y-31500000D03*
D16*
X53750000Y-28960000D03*
D18*
X39905000Y-27206000D03*
X38635000Y-27206000D03*
X37365000Y-27206000D03*
X36095000Y-27206000D03*
X36095000Y-32794000D03*
X37365000Y-32794000D03*
X38635000Y-32794000D03*
X39905000Y-32794000D03*
D19*
X34500000Y-31350000D03*
X34500000Y-28650000D03*
D20*
X36400640Y-35400000D03*
X41399360Y-35400000D03*
D12*
X38000000Y-30000000D03*
D21*
X31000000Y-31500000D03*
D22*
X46250000Y-35250000D03*
D23*
X39905000Y-27206000D02*
X41206000Y-27206000D01*
X41206000Y-27206000D02*
X42000000Y-28000000D01*
X42000000Y-28000000D02*
X42000000Y-28750000D01*
X36095000Y-27206000D02*
X36095000Y-26155000D01*
X36450000Y-25800000D02*
X41450000Y-25800000D01*
X41450000Y-25800000D02*
X42830000Y-27180000D01*
X42830000Y-27180000D02*
X45000000Y-27180000D01*
X36095000Y-26155000D02*
X36450000Y-25800000D01*
X45000000Y-27180000D02*
X51970000Y-27180000D01*
X51970000Y-27180000D02*
X53750000Y-28960000D01*
X36095000Y-32794000D02*
X35094000Y-32794000D01*
X34500000Y-32200000D02*
X34500000Y-31350000D01*
X35094000Y-32794000D02*
X34500000Y-32200000D01*
X45800000Y-30100000D02*
X45800000Y-31520000D01*
X45800000Y-31520000D02*
X45000000Y-32320000D01*
X44200000Y-30100000D02*
X44200000Y-31520000D01*
X44200000Y-31520000D02*
X45000000Y-32320000D01*
X48700000Y-32800000D02*
X48700000Y-31760000D01*
X48700000Y-31760000D02*
X49500000Y-30960000D01*
X50300000Y-32800000D02*
X50300000Y-31760000D01*
X50300000Y-31760000D02*
X49500000Y-30960000D01*
X33800000Y-36200000D02*
X35600640Y-36200000D01*
X35600640Y-36200000D02*
X36400640Y-35400000D01*
X33800000Y-34600000D02*
X35600640Y-34600000D01*
X35600640Y-34600000D02*
X36400640Y-35400000D01*
X33800000Y-34600000D02*
X33800000Y-36200000D01*
X37365000Y-32794000D02*
X37365000Y-31365000D01*
X37365000Y-31365000D02*
X36800000Y-30800000D01*
X34500000Y-28650000D02*
X36250000Y-28650000D01*
X36250000Y-28650000D02*
X36800000Y-29200000D01*
X36800000Y-30800000D02*
X36800000Y-29200000D01*
X36800000Y-30800000D02*
X37200000Y-30800000D01*
X37200000Y-30800000D02*
X38000000Y-30000000D01*
X39300000Y-29300000D02*
X39300000Y-30800000D01*
X39300000Y-30800000D02*
X38800000Y-30800000D01*
X38800000Y-30800000D02*
X38000000Y-30000000D01*
X38635000Y-27206000D02*
X38635000Y-28635000D01*
X38635000Y-28635000D02*
X39300000Y-29300000D01*
X37365000Y-27206000D02*
X37365000Y-28635000D01*
X37365000Y-28635000D02*
X36800000Y-29200000D01*
X37365000Y-32794000D02*
X37365000Y-33535000D01*
X36400640Y-34499360D02*
X36400640Y-35400000D01*
X37365000Y-33535000D02*
X36400640Y-34499360D01*
X49500000Y-30960000D02*
X47540000Y-30960000D01*
X47540000Y-30960000D02*
X46180000Y-32320000D01*
X46180000Y-32320000D02*
X45000000Y-32320000D01*
X49500000Y-30960000D02*
X51710000Y-30960000D01*
X52250000Y-31500000D02*
X53750000Y-31500000D01*
X51710000Y-30960000D02*
X52250000Y-31500000D01*
X38635000Y-32794000D02*
X38635000Y-36635000D01*
X38885000Y-36885000D02*
X39250000Y-37250000D01*
X39250000Y-37250000D02*
X46000000Y-37250000D01*
X46000000Y-37250000D02*
X47210000Y-36040000D01*
X47210000Y-36040000D02*
X49500000Y-36040000D01*
X38635000Y-36635000D02*
X38885000Y-36885000D01*
X49500000Y-36040000D02*
X51750000Y-36040000D01*
X51750000Y-36040000D02*
X53750000Y-34040000D01*
D24*
X46100000Y-35400000D02*
X46250000Y-35250000D01*
X46100000Y-35400000D02*
X41399360Y-35400000D01*
X42000000Y-31250000D02*
X42000000Y-32193360D01*
X42000000Y-32193360D02*
X41399360Y-32794000D01*
X41399360Y-35400000D02*
X41399360Y-32794000D01*
X39905000Y-32794000D02*
X41399360Y-32794000D01*
X41456000Y-35343360D02*
X41399360Y-35400000D01*
D25*
G36*
X54207102Y-25500010D02*
X54382676Y-25617325D01*
X54499990Y-25792899D01*
X54550000Y-26044318D01*
X54550000Y-28066612D01*
X54522605Y-28039018D01*
X54122950Y-27871782D01*
X53950000Y-27913178D01*
X53950000Y-28760000D01*
X53970000Y-28760000D01*
X53970000Y-29160000D01*
X53950000Y-29160000D01*
X53950000Y-29180000D01*
X53550000Y-29180000D01*
X53550000Y-29160000D01*
X52565703Y-29160000D01*
X52546881Y-29328911D01*
X52672161Y-29573534D01*
X52896996Y-29800000D01*
X52741421Y-29800000D01*
X52070711Y-29129289D01*
X52038269Y-29107612D01*
X52000000Y-29100000D01*
X45800299Y-29100000D01*
X45601960Y-29099827D01*
X45601541Y-29100000D01*
X44200299Y-29100000D01*
X44001960Y-29099827D01*
X44001541Y-29100000D01*
X43441422Y-29100000D01*
X43200000Y-28858578D01*
X43200000Y-27900000D01*
X43192388Y-27861732D01*
X43192388Y-27861731D01*
X43170711Y-27829289D01*
X42721422Y-27380000D01*
X43637500Y-27380000D01*
X43575000Y-27442500D01*
X43575000Y-28614728D01*
X43613060Y-28706614D01*
X43683386Y-28776940D01*
X43775272Y-28815000D01*
X44737500Y-28815000D01*
X44800000Y-28752500D01*
X44800000Y-27380000D01*
X45200000Y-27380000D01*
X44800000Y-27380000D01*
X44800000Y-27380000D01*
X45200000Y-27380000D01*
X45200000Y-28752500D01*
X45262500Y-28815000D01*
X46224728Y-28815000D01*
X46316614Y-28776940D01*
X46386940Y-28706614D01*
X46425000Y-28614728D01*
X46425000Y-28039018D01*
X52977395Y-28039018D01*
X52672161Y-28346466D01*
X52546881Y-28591089D01*
X52565703Y-28760000D01*
X53550000Y-28760000D01*
X53550000Y-27913178D01*
X53377050Y-27871782D01*
X52977395Y-28039018D01*
X46425000Y-28039018D01*
X46425000Y-27442500D01*
X46362500Y-27380000D01*
X45200000Y-27380000D01*
X44800000Y-27380000D01*
X44800000Y-27380000D01*
X43637500Y-27380000D01*
X42721422Y-27380000D01*
X41470711Y-26129289D01*
X41438269Y-26107612D01*
X41400000Y-26100000D01*
X40170779Y-26100000D01*
X39905000Y-26047133D01*
X39639221Y-26100000D01*
X38900779Y-26100000D01*
X38635000Y-26047133D01*
X38369221Y-26100000D01*
X37630779Y-26100000D01*
X37365000Y-26047133D01*
X37099221Y-26100000D01*
X36900000Y-26100000D01*
X36861731Y-26107612D01*
X36829289Y-26129289D01*
X36549996Y-26408582D01*
X36531032Y-26377111D01*
X36328975Y-26271150D01*
X36247400Y-26306083D01*
X36247400Y-27006000D01*
X36315000Y-27006000D01*
X36315000Y-27300000D01*
X33441422Y-27300000D01*
X33200000Y-27058578D01*
X33200000Y-26377111D01*
X35658968Y-26377111D01*
X35540200Y-26574200D01*
X35540200Y-27006000D01*
X35942600Y-27006000D01*
X35942600Y-26306083D01*
X35861025Y-26271150D01*
X35658968Y-26377111D01*
X33200000Y-26377111D01*
X33200000Y-25545000D01*
X43775272Y-25545000D01*
X43683386Y-25583060D01*
X43613060Y-25653386D01*
X43575000Y-25745272D01*
X43575000Y-26917500D01*
X43637500Y-26980000D01*
X44800000Y-26980000D01*
X44800000Y-25607500D01*
X44737500Y-25545000D01*
X45262500Y-25545000D01*
X44737500Y-25545000D01*
X44737500Y-25545000D01*
X45262500Y-25545000D01*
X45200000Y-25607500D01*
X45200000Y-26980000D01*
X46362500Y-26980000D01*
X46425000Y-26917500D01*
X46425000Y-25745272D01*
X46386940Y-25653386D01*
X46316614Y-25583060D01*
X46224728Y-25545000D01*
X45262500Y-25545000D01*
X44737500Y-25545000D01*
X44737500Y-25545000D01*
X43775272Y-25545000D01*
X33200000Y-25545000D01*
X33200000Y-25450000D01*
X53955682Y-25450000D01*
X54207102Y-25500010D01*
X54207102Y-25500010D01*
G37*
X54207102Y-25500010D02*
X54382676Y-25617325D01*
X54499990Y-25792899D01*
X54550000Y-26044318D01*
X54550000Y-28066612D01*
X54522605Y-28039018D01*
X54122950Y-27871782D01*
X53950000Y-27913178D01*
X53950000Y-28760000D01*
X53970000Y-28760000D01*
X53970000Y-29160000D01*
X53950000Y-29160000D01*
X53950000Y-29180000D01*
X53550000Y-29180000D01*
X53550000Y-29160000D01*
X52565703Y-29160000D01*
X52546881Y-29328911D01*
X52672161Y-29573534D01*
X52896996Y-29800000D01*
X52741421Y-29800000D01*
X52070711Y-29129289D01*
X52038269Y-29107612D01*
X52000000Y-29100000D01*
X45800299Y-29100000D01*
X45601960Y-29099827D01*
X45601541Y-29100000D01*
X44200299Y-29100000D01*
X44001960Y-29099827D01*
X44001541Y-29100000D01*
X43441422Y-29100000D01*
X43200000Y-28858578D01*
X43200000Y-27900000D01*
X43192388Y-27861732D01*
X43192388Y-27861731D01*
X43170711Y-27829289D01*
X42721422Y-27380000D01*
X43637500Y-27380000D01*
X43575000Y-27442500D01*
X43575000Y-28614728D01*
X43613060Y-28706614D01*
X43683386Y-28776940D01*
X43775272Y-28815000D01*
X44737500Y-28815000D01*
X44800000Y-28752500D01*
X44800000Y-27380000D01*
X45200000Y-27380000D01*
X44800000Y-27380000D01*
X44800000Y-27380000D01*
X45200000Y-27380000D01*
X45200000Y-28752500D01*
X45262500Y-28815000D01*
X46224728Y-28815000D01*
X46316614Y-28776940D01*
X46386940Y-28706614D01*
X46425000Y-28614728D01*
X46425000Y-28039018D01*
X52977395Y-28039018D01*
X52672161Y-28346466D01*
X52546881Y-28591089D01*
X52565703Y-28760000D01*
X53550000Y-28760000D01*
X53550000Y-27913178D01*
X53377050Y-27871782D01*
X52977395Y-28039018D01*
X46425000Y-28039018D01*
X46425000Y-27442500D01*
X46362500Y-27380000D01*
X45200000Y-27380000D01*
X44800000Y-27380000D01*
X44800000Y-27380000D01*
X43637500Y-27380000D01*
X42721422Y-27380000D01*
X41470711Y-26129289D01*
X41438269Y-26107612D01*
X41400000Y-26100000D01*
X40170779Y-26100000D01*
X39905000Y-26047133D01*
X39639221Y-26100000D01*
X38900779Y-26100000D01*
X38635000Y-26047133D01*
X38369221Y-26100000D01*
X37630779Y-26100000D01*
X37365000Y-26047133D01*
X37099221Y-26100000D01*
X36900000Y-26100000D01*
X36861731Y-26107612D01*
X36829289Y-26129289D01*
X36549996Y-26408582D01*
X36531032Y-26377111D01*
X36328975Y-26271150D01*
X36247400Y-26306083D01*
X36247400Y-27006000D01*
X36315000Y-27006000D01*
X36315000Y-27300000D01*
X33441422Y-27300000D01*
X33200000Y-27058578D01*
X33200000Y-26377111D01*
X35658968Y-26377111D01*
X35540200Y-26574200D01*
X35540200Y-27006000D01*
X35942600Y-27006000D01*
X35942600Y-26306083D01*
X35861025Y-26271150D01*
X35658968Y-26377111D01*
X33200000Y-26377111D01*
X33200000Y-25545000D01*
X43775272Y-25545000D01*
X43683386Y-25583060D01*
X43613060Y-25653386D01*
X43575000Y-25745272D01*
X43575000Y-26917500D01*
X43637500Y-26980000D01*
X44800000Y-26980000D01*
X44800000Y-25607500D01*
X44737500Y-25545000D01*
X45262500Y-25545000D01*
X44737500Y-25545000D01*
X44737500Y-25545000D01*
X45262500Y-25545000D01*
X45200000Y-25607500D01*
X45200000Y-26980000D01*
X46362500Y-26980000D01*
X46425000Y-26917500D01*
X46425000Y-25745272D01*
X46386940Y-25653386D01*
X46316614Y-25583060D01*
X46224728Y-25545000D01*
X45262500Y-25545000D01*
X44737500Y-25545000D01*
X44737500Y-25545000D01*
X43775272Y-25545000D01*
X33200000Y-25545000D01*
X33200000Y-25450000D01*
X53955682Y-25450000D01*
X54207102Y-25500010D01*
G36*
X38787400Y-32594000D02*
X38855000Y-32594000D01*
X38855000Y-32994000D01*
X38787400Y-32994000D01*
X38787400Y-33693917D01*
X38868975Y-33728850D01*
X39000000Y-33660139D01*
X39000000Y-33700000D01*
X39001911Y-33709607D01*
X39001901Y-33719407D01*
X39005680Y-33728558D01*
X39007612Y-33738268D01*
X39013054Y-33746414D01*
X39016795Y-33755470D01*
X39200000Y-34030277D01*
X39200000Y-36600000D01*
X39207612Y-36638269D01*
X39229289Y-36670711D01*
X39529289Y-36970711D01*
X39561731Y-36992388D01*
X39561732Y-36992388D01*
X39600000Y-37000000D01*
X45800000Y-37000000D01*
X45838268Y-36992388D01*
X45838269Y-36992388D01*
X45870711Y-36970711D01*
X46601422Y-36240000D01*
X47162500Y-36240000D01*
X47100000Y-36302500D01*
X47100000Y-37289728D01*
X47138060Y-37381614D01*
X47208386Y-37451940D01*
X47300272Y-37490000D01*
X49237500Y-37490000D01*
X49300000Y-37427500D01*
X49300000Y-36240000D01*
X49700000Y-36240000D01*
X49300000Y-36240000D01*
X49300000Y-36240000D01*
X49700000Y-36240000D01*
X49700000Y-37427500D01*
X49762500Y-37490000D01*
X51699728Y-37490000D01*
X51791614Y-37451940D01*
X51861940Y-37381614D01*
X51900000Y-37289728D01*
X51900000Y-36302500D01*
X51837500Y-36240000D01*
X49700000Y-36240000D01*
X49300000Y-36240000D01*
X49300000Y-36240000D01*
X47162500Y-36240000D01*
X46601422Y-36240000D01*
X46970711Y-35870711D01*
X46992388Y-35838269D01*
X46992388Y-35838268D01*
X47000000Y-35800000D01*
X47000001Y-35800000D01*
X47000000Y-35799994D01*
X47000000Y-35529907D01*
X47049861Y-35409828D01*
X47050139Y-35091568D01*
X47000000Y-34970222D01*
X47000000Y-34590000D01*
X47300272Y-34590000D01*
X47208386Y-34628060D01*
X47138060Y-34698386D01*
X47100000Y-34790272D01*
X47100000Y-35777500D01*
X47162500Y-35840000D01*
X49300000Y-35840000D01*
X49300000Y-34652500D01*
X49237500Y-34590000D01*
X49762500Y-34590000D01*
X49700000Y-34652500D01*
X49700000Y-35840000D01*
X51837500Y-35840000D01*
X51900000Y-35777500D01*
X51900000Y-34790272D01*
X51861940Y-34698386D01*
X51791614Y-34628060D01*
X51699728Y-34590000D01*
X49762500Y-34590000D01*
X49237500Y-34590000D01*
X49237500Y-34590000D01*
X47300272Y-34590000D01*
X47000000Y-34590000D01*
X47000000Y-34441422D01*
X47201422Y-34240000D01*
X52565703Y-34240000D01*
X52546881Y-34408911D01*
X52672161Y-34653534D01*
X52977395Y-34960982D01*
X53377050Y-35128218D01*
X53550000Y-35086822D01*
X53550000Y-34240000D01*
X52565703Y-34240000D01*
X47201422Y-34240000D01*
X47241422Y-34200000D01*
X51900000Y-34200000D01*
X51938268Y-34192388D01*
X51938269Y-34192388D01*
X51970711Y-34170711D01*
X52270711Y-33870711D01*
X52292388Y-33838269D01*
X52292388Y-33838268D01*
X52300000Y-33800000D01*
X52300000Y-33441422D01*
X52541422Y-33200000D01*
X52896996Y-33200000D01*
X52672161Y-33426466D01*
X52546881Y-33671089D01*
X52565703Y-33840000D01*
X53550000Y-33840000D01*
X53550000Y-33820000D01*
X53950000Y-33820000D01*
X53950000Y-33840000D01*
X53970000Y-33840000D01*
X53970000Y-34240000D01*
X53950000Y-34240000D01*
X53950000Y-35086822D01*
X54122950Y-35128218D01*
X54522605Y-34960982D01*
X54550000Y-34933388D01*
X54550000Y-36955682D01*
X54499990Y-37207101D01*
X54382676Y-37382675D01*
X54207102Y-37499990D01*
X53955682Y-37550000D01*
X38500000Y-37550000D01*
X38500000Y-36497684D01*
X38527000Y-36457684D01*
X38558536Y-36300430D01*
X38558536Y-34499570D01*
X38528944Y-34347051D01*
X38500000Y-34302989D01*
X38500000Y-34000000D01*
X38498088Y-33990391D01*
X38498099Y-33980593D01*
X38494319Y-33971441D01*
X38492388Y-33961732D01*
X38486945Y-33953585D01*
X38483205Y-33944530D01*
X38306303Y-33679177D01*
X38401025Y-33728850D01*
X38482600Y-33693917D01*
X38482600Y-32994000D01*
X38415000Y-32994000D01*
X38415000Y-32594000D01*
X38482600Y-32594000D01*
X38482600Y-32574000D01*
X38787400Y-32574000D01*
X38787400Y-32594000D01*
X38787400Y-32594000D01*
G37*
X38787400Y-32594000D02*
X38855000Y-32594000D01*
X38855000Y-32994000D01*
X38787400Y-32994000D01*
X38787400Y-33693917D01*
X38868975Y-33728850D01*
X39000000Y-33660139D01*
X39000000Y-33700000D01*
X39001911Y-33709607D01*
X39001901Y-33719407D01*
X39005680Y-33728558D01*
X39007612Y-33738268D01*
X39013054Y-33746414D01*
X39016795Y-33755470D01*
X39200000Y-34030277D01*
X39200000Y-36600000D01*
X39207612Y-36638269D01*
X39229289Y-36670711D01*
X39529289Y-36970711D01*
X39561731Y-36992388D01*
X39561732Y-36992388D01*
X39600000Y-37000000D01*
X45800000Y-37000000D01*
X45838268Y-36992388D01*
X45838269Y-36992388D01*
X45870711Y-36970711D01*
X46601422Y-36240000D01*
X47162500Y-36240000D01*
X47100000Y-36302500D01*
X47100000Y-37289728D01*
X47138060Y-37381614D01*
X47208386Y-37451940D01*
X47300272Y-37490000D01*
X49237500Y-37490000D01*
X49300000Y-37427500D01*
X49300000Y-36240000D01*
X49700000Y-36240000D01*
X49300000Y-36240000D01*
X49300000Y-36240000D01*
X49700000Y-36240000D01*
X49700000Y-37427500D01*
X49762500Y-37490000D01*
X51699728Y-37490000D01*
X51791614Y-37451940D01*
X51861940Y-37381614D01*
X51900000Y-37289728D01*
X51900000Y-36302500D01*
X51837500Y-36240000D01*
X49700000Y-36240000D01*
X49300000Y-36240000D01*
X49300000Y-36240000D01*
X47162500Y-36240000D01*
X46601422Y-36240000D01*
X46970711Y-35870711D01*
X46992388Y-35838269D01*
X46992388Y-35838268D01*
X47000000Y-35800000D01*
X47000001Y-35800000D01*
X47000000Y-35799994D01*
X47000000Y-35529907D01*
X47049861Y-35409828D01*
X47050139Y-35091568D01*
X47000000Y-34970222D01*
X47000000Y-34590000D01*
X47300272Y-34590000D01*
X47208386Y-34628060D01*
X47138060Y-34698386D01*
X47100000Y-34790272D01*
X47100000Y-35777500D01*
X47162500Y-35840000D01*
X49300000Y-35840000D01*
X49300000Y-34652500D01*
X49237500Y-34590000D01*
X49762500Y-34590000D01*
X49700000Y-34652500D01*
X49700000Y-35840000D01*
X51837500Y-35840000D01*
X51900000Y-35777500D01*
X51900000Y-34790272D01*
X51861940Y-34698386D01*
X51791614Y-34628060D01*
X51699728Y-34590000D01*
X49762500Y-34590000D01*
X49237500Y-34590000D01*
X49237500Y-34590000D01*
X47300272Y-34590000D01*
X47000000Y-34590000D01*
X47000000Y-34441422D01*
X47201422Y-34240000D01*
X52565703Y-34240000D01*
X52546881Y-34408911D01*
X52672161Y-34653534D01*
X52977395Y-34960982D01*
X53377050Y-35128218D01*
X53550000Y-35086822D01*
X53550000Y-34240000D01*
X52565703Y-34240000D01*
X47201422Y-34240000D01*
X47241422Y-34200000D01*
X51900000Y-34200000D01*
X51938268Y-34192388D01*
X51938269Y-34192388D01*
X51970711Y-34170711D01*
X52270711Y-33870711D01*
X52292388Y-33838269D01*
X52292388Y-33838268D01*
X52300000Y-33800000D01*
X52300000Y-33441422D01*
X52541422Y-33200000D01*
X52896996Y-33200000D01*
X52672161Y-33426466D01*
X52546881Y-33671089D01*
X52565703Y-33840000D01*
X53550000Y-33840000D01*
X53550000Y-33820000D01*
X53950000Y-33820000D01*
X53950000Y-33840000D01*
X53970000Y-33840000D01*
X53970000Y-34240000D01*
X53950000Y-34240000D01*
X53950000Y-35086822D01*
X54122950Y-35128218D01*
X54522605Y-34960982D01*
X54550000Y-34933388D01*
X54550000Y-36955682D01*
X54499990Y-37207101D01*
X54382676Y-37382675D01*
X54207102Y-37499990D01*
X53955682Y-37550000D01*
X38500000Y-37550000D01*
X38500000Y-36497684D01*
X38527000Y-36457684D01*
X38558536Y-36300430D01*
X38558536Y-34499570D01*
X38528944Y-34347051D01*
X38500000Y-34302989D01*
X38500000Y-34000000D01*
X38498088Y-33990391D01*
X38498099Y-33980593D01*
X38494319Y-33971441D01*
X38492388Y-33961732D01*
X38486945Y-33953585D01*
X38483205Y-33944530D01*
X38306303Y-33679177D01*
X38401025Y-33728850D01*
X38482600Y-33693917D01*
X38482600Y-32994000D01*
X38415000Y-32994000D01*
X38415000Y-32594000D01*
X38482600Y-32594000D01*
X38482600Y-32574000D01*
X38787400Y-32574000D01*
X38787400Y-32594000D01*
G36*
X41163060Y-30358386D02*
X41125000Y-30450272D01*
X41125000Y-30987500D01*
X41187500Y-31050000D01*
X41800000Y-31050000D01*
X41800000Y-31030000D01*
X42200000Y-31030000D01*
X42200000Y-31050000D01*
X42812500Y-31050000D01*
X42875000Y-30987500D01*
X42875000Y-30516422D01*
X42900000Y-30541422D01*
X42900000Y-33700000D01*
X42907612Y-33738269D01*
X42929289Y-33770711D01*
X43329286Y-34170707D01*
X43329289Y-34170711D01*
X43361731Y-34192387D01*
X43361732Y-34192388D01*
X43400000Y-34200000D01*
X46158578Y-34200000D01*
X46400000Y-34441422D01*
X46400000Y-35558578D01*
X45558578Y-36400000D01*
X43378775Y-36400000D01*
X43399420Y-36350158D01*
X43399420Y-35662500D01*
X43336920Y-35600000D01*
X41599360Y-35600000D01*
X41599360Y-35620000D01*
X41199360Y-35620000D01*
X41199360Y-35600000D01*
X41179360Y-35600000D01*
X41179360Y-35200000D01*
X41199360Y-35200000D01*
X41199360Y-34312070D01*
X41136860Y-34249570D01*
X41661860Y-34249570D01*
X41599360Y-34312070D01*
X41599360Y-35200000D01*
X43336920Y-35200000D01*
X43399420Y-35137500D01*
X43399420Y-34449842D01*
X43361360Y-34357956D01*
X43291034Y-34287630D01*
X43199148Y-34249570D01*
X41661860Y-34249570D01*
X41136860Y-34249570D01*
X41136860Y-34249570D01*
X39700000Y-34249570D01*
X39700000Y-33716442D01*
X39752600Y-33693917D01*
X39752600Y-32994000D01*
X40057400Y-32994000D01*
X40057400Y-33693917D01*
X40138975Y-33728850D01*
X40341032Y-33622889D01*
X40459800Y-33425800D01*
X40459800Y-32994000D01*
X40057400Y-32994000D01*
X39752600Y-32994000D01*
X39752600Y-32994000D01*
X39700000Y-32994000D01*
X39700000Y-32594000D01*
X39752600Y-32594000D01*
X39752600Y-32574000D01*
X40057400Y-32574000D01*
X40057400Y-32594000D01*
X40459800Y-32594000D01*
X40459800Y-32162200D01*
X40341032Y-31965111D01*
X40138975Y-31859150D01*
X40105002Y-31873698D01*
X40105002Y-31807400D01*
X39934021Y-31807400D01*
X40291420Y-31450000D01*
X41187500Y-31450000D01*
X41125000Y-31512500D01*
X41125000Y-32049728D01*
X41163060Y-32141614D01*
X41233386Y-32211940D01*
X41325272Y-32250000D01*
X41737500Y-32250000D01*
X41800000Y-32187500D01*
X41800000Y-31450000D01*
X42200000Y-31450000D01*
X41800000Y-31450000D01*
X41800000Y-31450000D01*
X42200000Y-31450000D01*
X42200000Y-32187500D01*
X42262500Y-32250000D01*
X42674728Y-32250000D01*
X42766614Y-32211940D01*
X42836940Y-32141614D01*
X42875000Y-32049728D01*
X42875000Y-31512500D01*
X42812500Y-31450000D01*
X42200000Y-31450000D01*
X41800000Y-31450000D01*
X41800000Y-31450000D01*
X41187500Y-31450000D01*
X40291420Y-31450000D01*
X40370707Y-31370713D01*
X40370710Y-31370711D01*
X40370711Y-31370711D01*
X40392387Y-31338269D01*
X40392388Y-31338268D01*
X40400000Y-31300000D01*
X40400000Y-30541422D01*
X40641422Y-30300000D01*
X41221446Y-30300000D01*
X41163060Y-30358386D01*
X41163060Y-30358386D01*
G37*
X41163060Y-30358386D02*
X41125000Y-30450272D01*
X41125000Y-30987500D01*
X41187500Y-31050000D01*
X41800000Y-31050000D01*
X41800000Y-31030000D01*
X42200000Y-31030000D01*
X42200000Y-31050000D01*
X42812500Y-31050000D01*
X42875000Y-30987500D01*
X42875000Y-30516422D01*
X42900000Y-30541422D01*
X42900000Y-33700000D01*
X42907612Y-33738269D01*
X42929289Y-33770711D01*
X43329286Y-34170707D01*
X43329289Y-34170711D01*
X43361731Y-34192387D01*
X43361732Y-34192388D01*
X43400000Y-34200000D01*
X46158578Y-34200000D01*
X46400000Y-34441422D01*
X46400000Y-35558578D01*
X45558578Y-36400000D01*
X43378775Y-36400000D01*
X43399420Y-36350158D01*
X43399420Y-35662500D01*
X43336920Y-35600000D01*
X41599360Y-35600000D01*
X41599360Y-35620000D01*
X41199360Y-35620000D01*
X41199360Y-35600000D01*
X41179360Y-35600000D01*
X41179360Y-35200000D01*
X41199360Y-35200000D01*
X41199360Y-34312070D01*
X41136860Y-34249570D01*
X41661860Y-34249570D01*
X41599360Y-34312070D01*
X41599360Y-35200000D01*
X43336920Y-35200000D01*
X43399420Y-35137500D01*
X43399420Y-34449842D01*
X43361360Y-34357956D01*
X43291034Y-34287630D01*
X43199148Y-34249570D01*
X41661860Y-34249570D01*
X41136860Y-34249570D01*
X41136860Y-34249570D01*
X39700000Y-34249570D01*
X39700000Y-33716442D01*
X39752600Y-33693917D01*
X39752600Y-32994000D01*
X40057400Y-32994000D01*
X40057400Y-33693917D01*
X40138975Y-33728850D01*
X40341032Y-33622889D01*
X40459800Y-33425800D01*
X40459800Y-32994000D01*
X40057400Y-32994000D01*
X39752600Y-32994000D01*
X39752600Y-32994000D01*
X39700000Y-32994000D01*
X39700000Y-32594000D01*
X39752600Y-32594000D01*
X39752600Y-32574000D01*
X40057400Y-32574000D01*
X40057400Y-32594000D01*
X40459800Y-32594000D01*
X40459800Y-32162200D01*
X40341032Y-31965111D01*
X40138975Y-31859150D01*
X40105002Y-31873698D01*
X40105002Y-31807400D01*
X39934021Y-31807400D01*
X40291420Y-31450000D01*
X41187500Y-31450000D01*
X41125000Y-31512500D01*
X41125000Y-32049728D01*
X41163060Y-32141614D01*
X41233386Y-32211940D01*
X41325272Y-32250000D01*
X41737500Y-32250000D01*
X41800000Y-32187500D01*
X41800000Y-31450000D01*
X42200000Y-31450000D01*
X41800000Y-31450000D01*
X41800000Y-31450000D01*
X42200000Y-31450000D01*
X42200000Y-32187500D01*
X42262500Y-32250000D01*
X42674728Y-32250000D01*
X42766614Y-32211940D01*
X42836940Y-32141614D01*
X42875000Y-32049728D01*
X42875000Y-31512500D01*
X42812500Y-31450000D01*
X42200000Y-31450000D01*
X41800000Y-31450000D01*
X41800000Y-31450000D01*
X41187500Y-31450000D01*
X40291420Y-31450000D01*
X40370707Y-31370713D01*
X40370710Y-31370711D01*
X40370711Y-31370711D01*
X40392387Y-31338269D01*
X40392388Y-31338268D01*
X40400000Y-31300000D01*
X40400000Y-30541422D01*
X40641422Y-30300000D01*
X41221446Y-30300000D01*
X41163060Y-30358386D01*
G36*
X47100000Y-29710272D02*
X47100000Y-30697500D01*
X47162500Y-30760000D01*
X49300000Y-30760000D01*
X49300000Y-30740000D01*
X49700000Y-30740000D01*
X49700000Y-30760000D01*
X51837500Y-30760000D01*
X51900000Y-30697500D01*
X51900000Y-30541422D01*
X51929289Y-30570711D01*
X51961731Y-30592388D01*
X51961732Y-30592388D01*
X52000000Y-30600000D01*
X52484000Y-30600000D01*
X52484000Y-31237500D01*
X52546500Y-31300000D01*
X53550000Y-31300000D01*
X53550000Y-31280000D01*
X53950000Y-31280000D01*
X53950000Y-31300000D01*
X53970000Y-31300000D01*
X53970000Y-31700000D01*
X53950000Y-31700000D01*
X53950000Y-31720000D01*
X53550000Y-31720000D01*
X53550000Y-31700000D01*
X52546500Y-31700000D01*
X52484000Y-31762500D01*
X52484000Y-32300000D01*
X52100000Y-32300000D01*
X52061731Y-32307612D01*
X52029289Y-32329289D01*
X51729289Y-32629289D01*
X51707612Y-32661731D01*
X51700000Y-32700000D01*
X51700000Y-33358578D01*
X51458578Y-33600000D01*
X50633290Y-33600000D01*
X50633852Y-33599767D01*
X50709333Y-33492176D01*
X50300000Y-33082843D01*
X49890667Y-33492176D01*
X49966148Y-33599767D01*
X49967303Y-33600000D01*
X49033290Y-33600000D01*
X49033852Y-33599767D01*
X49109333Y-33492176D01*
X48700000Y-33082843D01*
X48290667Y-33492176D01*
X48366148Y-33599767D01*
X48367303Y-33600000D01*
X46425000Y-33600000D01*
X46425000Y-32582500D01*
X46362500Y-32520000D01*
X45200000Y-32520000D01*
X45200000Y-32540000D01*
X44800000Y-32540000D01*
X44800000Y-32520000D01*
X43637500Y-32520000D01*
X43575000Y-32582500D01*
X43575000Y-33533579D01*
X43500000Y-33458578D01*
X43500000Y-32209728D01*
X47100000Y-32209728D01*
X47138060Y-32301614D01*
X47208386Y-32371940D01*
X47300272Y-32410000D01*
X47980267Y-32410000D01*
X47900233Y-32466148D01*
X47833352Y-32797618D01*
X47898410Y-33129452D01*
X47900233Y-33133852D01*
X48007824Y-33209333D01*
X48417157Y-32800000D01*
X48403015Y-32785858D01*
X48685858Y-32503015D01*
X48700000Y-32517157D01*
X48807157Y-32410000D01*
X49237500Y-32410000D01*
X49256833Y-32390667D01*
X49392176Y-32390667D01*
X48982843Y-32800000D01*
X49392176Y-33209333D01*
X49499767Y-33133852D01*
X49499920Y-33133096D01*
X49500233Y-33133852D01*
X49607824Y-33209333D01*
X50017157Y-32800000D01*
X49607824Y-32390667D01*
X49500233Y-32466148D01*
X49500080Y-32466904D01*
X49499767Y-32466148D01*
X49392176Y-32390667D01*
X49256833Y-32390667D01*
X49300000Y-32347500D01*
X49300000Y-31160000D01*
X49700000Y-31160000D01*
X49700000Y-32347500D01*
X49762500Y-32410000D01*
X50192843Y-32410000D01*
X50300000Y-32517157D01*
X50314142Y-32503015D01*
X50596985Y-32785858D01*
X50582843Y-32800000D01*
X50992176Y-33209333D01*
X51099767Y-33133852D01*
X51166648Y-32802382D01*
X51101590Y-32470548D01*
X51099767Y-32466148D01*
X51019733Y-32410000D01*
X51699728Y-32410000D01*
X51791614Y-32371940D01*
X51861940Y-32301614D01*
X51900000Y-32209728D01*
X51900000Y-31222500D01*
X51837500Y-31160000D01*
X49700000Y-31160000D01*
X49300000Y-31160000D01*
X49300000Y-31160000D01*
X47162500Y-31160000D01*
X46425000Y-31160000D01*
X46425000Y-30885272D01*
X46386940Y-30793386D01*
X46316614Y-30723060D01*
X46224728Y-30685000D01*
X46102157Y-30685000D01*
X45800000Y-30382843D01*
X45497843Y-30685000D01*
X45262500Y-30685000D01*
X45200000Y-30747500D01*
X45200000Y-32120000D01*
X46362500Y-32120000D01*
X46425000Y-32057500D01*
X46425000Y-31160000D01*
X47162500Y-31160000D01*
X46425000Y-31160000D01*
X46425000Y-31160000D01*
X47162500Y-31160000D01*
X47100000Y-31222500D01*
X47100000Y-32209728D01*
X43500000Y-32209728D01*
X43500000Y-30685000D01*
X43775272Y-30685000D01*
X43683386Y-30723060D01*
X43613060Y-30793386D01*
X43575000Y-30885272D01*
X43575000Y-32057500D01*
X43637500Y-32120000D01*
X44800000Y-32120000D01*
X44800000Y-30747500D01*
X44737500Y-30685000D01*
X44502157Y-30685000D01*
X44200000Y-30382843D01*
X43897843Y-30685000D01*
X43775272Y-30685000D01*
X43500000Y-30685000D01*
X43500000Y-30503844D01*
X43507824Y-30509333D01*
X43917157Y-30100000D01*
X43903015Y-30085858D01*
X44185858Y-29803015D01*
X44200000Y-29817157D01*
X44214142Y-29803015D01*
X44496985Y-30085858D01*
X44482843Y-30100000D01*
X44892176Y-30509333D01*
X44999767Y-30433852D01*
X44999920Y-30433096D01*
X45000233Y-30433852D01*
X45107824Y-30509333D01*
X45517157Y-30100000D01*
X45503015Y-30085858D01*
X45785858Y-29803015D01*
X45800000Y-29817157D01*
X45814142Y-29803015D01*
X46096985Y-30085858D01*
X46082843Y-30100000D01*
X46492176Y-30509333D01*
X46599767Y-30433852D01*
X46666648Y-30102382D01*
X46601590Y-29770548D01*
X46599767Y-29766148D01*
X46505479Y-29700000D01*
X47104255Y-29700000D01*
X47100000Y-29710272D01*
X47100000Y-29710272D01*
G37*
X47100000Y-29710272D02*
X47100000Y-30697500D01*
X47162500Y-30760000D01*
X49300000Y-30760000D01*
X49300000Y-30740000D01*
X49700000Y-30740000D01*
X49700000Y-30760000D01*
X51837500Y-30760000D01*
X51900000Y-30697500D01*
X51900000Y-30541422D01*
X51929289Y-30570711D01*
X51961731Y-30592388D01*
X51961732Y-30592388D01*
X52000000Y-30600000D01*
X52484000Y-30600000D01*
X52484000Y-31237500D01*
X52546500Y-31300000D01*
X53550000Y-31300000D01*
X53550000Y-31280000D01*
X53950000Y-31280000D01*
X53950000Y-31300000D01*
X53970000Y-31300000D01*
X53970000Y-31700000D01*
X53950000Y-31700000D01*
X53950000Y-31720000D01*
X53550000Y-31720000D01*
X53550000Y-31700000D01*
X52546500Y-31700000D01*
X52484000Y-31762500D01*
X52484000Y-32300000D01*
X52100000Y-32300000D01*
X52061731Y-32307612D01*
X52029289Y-32329289D01*
X51729289Y-32629289D01*
X51707612Y-32661731D01*
X51700000Y-32700000D01*
X51700000Y-33358578D01*
X51458578Y-33600000D01*
X50633290Y-33600000D01*
X50633852Y-33599767D01*
X50709333Y-33492176D01*
X50300000Y-33082843D01*
X49890667Y-33492176D01*
X49966148Y-33599767D01*
X49967303Y-33600000D01*
X49033290Y-33600000D01*
X49033852Y-33599767D01*
X49109333Y-33492176D01*
X48700000Y-33082843D01*
X48290667Y-33492176D01*
X48366148Y-33599767D01*
X48367303Y-33600000D01*
X46425000Y-33600000D01*
X46425000Y-32582500D01*
X46362500Y-32520000D01*
X45200000Y-32520000D01*
X45200000Y-32540000D01*
X44800000Y-32540000D01*
X44800000Y-32520000D01*
X43637500Y-32520000D01*
X43575000Y-32582500D01*
X43575000Y-33533579D01*
X43500000Y-33458578D01*
X43500000Y-32209728D01*
X47100000Y-32209728D01*
X47138060Y-32301614D01*
X47208386Y-32371940D01*
X47300272Y-32410000D01*
X47980267Y-32410000D01*
X47900233Y-32466148D01*
X47833352Y-32797618D01*
X47898410Y-33129452D01*
X47900233Y-33133852D01*
X48007824Y-33209333D01*
X48417157Y-32800000D01*
X48403015Y-32785858D01*
X48685858Y-32503015D01*
X48700000Y-32517157D01*
X48807157Y-32410000D01*
X49237500Y-32410000D01*
X49256833Y-32390667D01*
X49392176Y-32390667D01*
X48982843Y-32800000D01*
X49392176Y-33209333D01*
X49499767Y-33133852D01*
X49499920Y-33133096D01*
X49500233Y-33133852D01*
X49607824Y-33209333D01*
X50017157Y-32800000D01*
X49607824Y-32390667D01*
X49500233Y-32466148D01*
X49500080Y-32466904D01*
X49499767Y-32466148D01*
X49392176Y-32390667D01*
X49256833Y-32390667D01*
X49300000Y-32347500D01*
X49300000Y-31160000D01*
X49700000Y-31160000D01*
X49700000Y-32347500D01*
X49762500Y-32410000D01*
X50192843Y-32410000D01*
X50300000Y-32517157D01*
X50314142Y-32503015D01*
X50596985Y-32785858D01*
X50582843Y-32800000D01*
X50992176Y-33209333D01*
X51099767Y-33133852D01*
X51166648Y-32802382D01*
X51101590Y-32470548D01*
X51099767Y-32466148D01*
X51019733Y-32410000D01*
X51699728Y-32410000D01*
X51791614Y-32371940D01*
X51861940Y-32301614D01*
X51900000Y-32209728D01*
X51900000Y-31222500D01*
X51837500Y-31160000D01*
X49700000Y-31160000D01*
X49300000Y-31160000D01*
X49300000Y-31160000D01*
X47162500Y-31160000D01*
X46425000Y-31160000D01*
X46425000Y-30885272D01*
X46386940Y-30793386D01*
X46316614Y-30723060D01*
X46224728Y-30685000D01*
X46102157Y-30685000D01*
X45800000Y-30382843D01*
X45497843Y-30685000D01*
X45262500Y-30685000D01*
X45200000Y-30747500D01*
X45200000Y-32120000D01*
X46362500Y-32120000D01*
X46425000Y-32057500D01*
X46425000Y-31160000D01*
X47162500Y-31160000D01*
X46425000Y-31160000D01*
X46425000Y-31160000D01*
X47162500Y-31160000D01*
X47100000Y-31222500D01*
X47100000Y-32209728D01*
X43500000Y-32209728D01*
X43500000Y-30685000D01*
X43775272Y-30685000D01*
X43683386Y-30723060D01*
X43613060Y-30793386D01*
X43575000Y-30885272D01*
X43575000Y-32057500D01*
X43637500Y-32120000D01*
X44800000Y-32120000D01*
X44800000Y-30747500D01*
X44737500Y-30685000D01*
X44502157Y-30685000D01*
X44200000Y-30382843D01*
X43897843Y-30685000D01*
X43775272Y-30685000D01*
X43500000Y-30685000D01*
X43500000Y-30503844D01*
X43507824Y-30509333D01*
X43917157Y-30100000D01*
X43903015Y-30085858D01*
X44185858Y-29803015D01*
X44200000Y-29817157D01*
X44214142Y-29803015D01*
X44496985Y-30085858D01*
X44482843Y-30100000D01*
X44892176Y-30509333D01*
X44999767Y-30433852D01*
X44999920Y-30433096D01*
X45000233Y-30433852D01*
X45107824Y-30509333D01*
X45517157Y-30100000D01*
X45503015Y-30085858D01*
X45785858Y-29803015D01*
X45800000Y-29817157D01*
X45814142Y-29803015D01*
X46096985Y-30085858D01*
X46082843Y-30100000D01*
X46492176Y-30509333D01*
X46599767Y-30433852D01*
X46666648Y-30102382D01*
X46601590Y-29770548D01*
X46599767Y-29766148D01*
X46505479Y-29700000D01*
X47104255Y-29700000D01*
X47100000Y-29710272D01*
G36*
X32600000Y-27400000D02*
X32607612Y-27438269D01*
X32629289Y-27470711D01*
X32929289Y-27770711D01*
X32961731Y-27792388D01*
X32961732Y-27792388D01*
X33000000Y-27800000D01*
X33620823Y-27800000D01*
X33600000Y-27850272D01*
X33600000Y-28387500D01*
X33662500Y-28450000D01*
X34300000Y-28450000D01*
X34300000Y-28430000D01*
X34700000Y-28430000D01*
X34700000Y-28450000D01*
X35337500Y-28450000D01*
X35400000Y-28387500D01*
X35400000Y-28041422D01*
X35629289Y-28270711D01*
X35661732Y-28292388D01*
X35700000Y-28300001D01*
X35700000Y-28300000D01*
X35808497Y-28300000D01*
X35825285Y-28311217D01*
X36095000Y-28364867D01*
X36364715Y-28311217D01*
X36381503Y-28300000D01*
X39618497Y-28300000D01*
X39635285Y-28311217D01*
X39905000Y-28364867D01*
X40174715Y-28311217D01*
X40191503Y-28300000D01*
X40258578Y-28300000D01*
X40500000Y-28541422D01*
X40500000Y-29658578D01*
X39829289Y-30329289D01*
X39807612Y-30361731D01*
X39800000Y-30400000D01*
X39800000Y-30582843D01*
X39582843Y-30800000D01*
X39596985Y-30814142D01*
X39314142Y-31096985D01*
X39300000Y-31082843D01*
X38890667Y-31492176D01*
X38966148Y-31599767D01*
X39209674Y-31648904D01*
X39158578Y-31700000D01*
X38921503Y-31700000D01*
X38904715Y-31688783D01*
X38635000Y-31635133D01*
X38365285Y-31688783D01*
X38348497Y-31700000D01*
X38100000Y-31700000D01*
X38061731Y-31707612D01*
X38029289Y-31729289D01*
X37796069Y-31962509D01*
X37598975Y-31859150D01*
X37517400Y-31894083D01*
X37517400Y-32594000D01*
X37585000Y-32594000D01*
X37585000Y-32994000D01*
X37517400Y-32994000D01*
X37517400Y-33693917D01*
X37598975Y-33728850D01*
X37700000Y-33675871D01*
X37700000Y-34200000D01*
X37707612Y-34238268D01*
X37715164Y-34249570D01*
X36663140Y-34249570D01*
X36600640Y-34312070D01*
X36600640Y-35200000D01*
X36620640Y-35200000D01*
X36620640Y-35600000D01*
X36600640Y-35600000D01*
X36600640Y-36487930D01*
X36663140Y-36550430D01*
X38000000Y-36550430D01*
X38000000Y-37550000D01*
X29044318Y-37550000D01*
X28792899Y-37499990D01*
X28617325Y-37382676D01*
X28500010Y-37207102D01*
X28450000Y-36955682D01*
X28450000Y-36892176D01*
X33390667Y-36892176D01*
X33466148Y-36999767D01*
X33797618Y-37066648D01*
X34129452Y-37001590D01*
X34133852Y-36999767D01*
X34209333Y-36892176D01*
X33800000Y-36482843D01*
X33390667Y-36892176D01*
X28450000Y-36892176D01*
X28450000Y-35866148D01*
X33000233Y-35866148D01*
X32933352Y-36197618D01*
X32998410Y-36529452D01*
X33000233Y-36533852D01*
X33107824Y-36609333D01*
X33517157Y-36200000D01*
X34082843Y-36200000D01*
X34492176Y-36609333D01*
X34585312Y-36543993D01*
X34600852Y-36550430D01*
X36138140Y-36550430D01*
X36200640Y-36487930D01*
X36200640Y-35600000D01*
X34463080Y-35600000D01*
X34117157Y-35600000D01*
X34209333Y-35507824D01*
X34133852Y-35400233D01*
X34133096Y-35400080D01*
X34133852Y-35399767D01*
X34209333Y-35292176D01*
X33834894Y-34917737D01*
X34400580Y-34917737D01*
X34400580Y-35137500D01*
X34463080Y-35200000D01*
X36200640Y-35200000D01*
X36200640Y-34312070D01*
X36138140Y-34249570D01*
X34600852Y-34249570D01*
X34585312Y-34256007D01*
X34492176Y-34190667D01*
X34082843Y-34600000D01*
X33517157Y-34600000D01*
X33517157Y-34600000D01*
X33234314Y-34317157D01*
X33800000Y-34317157D01*
X34209333Y-33907824D01*
X34133852Y-33800233D01*
X33802382Y-33733352D01*
X33470548Y-33798410D01*
X32029947Y-33798410D01*
X32331830Y-33673366D01*
X32611087Y-33393930D01*
X32328244Y-33111087D01*
X32893930Y-33111087D01*
X33173366Y-32831830D01*
X33442573Y-32102107D01*
X33471756Y-32252519D01*
X33559812Y-32386569D01*
X33692746Y-32476300D01*
X33850000Y-32507836D01*
X34086410Y-32507836D01*
X34128769Y-32571231D01*
X34722769Y-33165231D01*
X34893091Y-33279037D01*
X35094000Y-33319000D01*
X35404310Y-33319000D01*
X35443850Y-33517782D01*
X35596631Y-33746436D01*
X35825285Y-33899217D01*
X36095000Y-33952867D01*
X36364715Y-33899217D01*
X36593369Y-33746436D01*
X36746150Y-33517782D01*
X36799800Y-33248067D01*
X36799800Y-32994000D01*
X36810200Y-32994000D01*
X36810200Y-33425800D01*
X36928968Y-33622889D01*
X37131025Y-33728850D01*
X37212600Y-33693917D01*
X37212600Y-32994000D01*
X36810200Y-32994000D01*
X36799800Y-32994000D01*
X36799800Y-32339933D01*
X36746150Y-32070218D01*
X36675921Y-31965111D01*
X36928968Y-31965111D01*
X36810200Y-32162200D01*
X36810200Y-32594000D01*
X37212600Y-32594000D01*
X37212600Y-31894083D01*
X37131025Y-31859150D01*
X36928968Y-31965111D01*
X36675921Y-31965111D01*
X36593369Y-31841564D01*
X36364715Y-31688783D01*
X36095000Y-31635133D01*
X35825285Y-31688783D01*
X35596631Y-31841564D01*
X35557836Y-31899625D01*
X35557836Y-31492176D01*
X36390667Y-31492176D01*
X36466148Y-31599767D01*
X36797618Y-31666648D01*
X37129452Y-31601590D01*
X37133852Y-31599767D01*
X37209333Y-31492176D01*
X36800000Y-31082843D01*
X36390667Y-31492176D01*
X35557836Y-31492176D01*
X35557836Y-30600000D01*
X35531866Y-30466148D01*
X36000233Y-30466148D01*
X35933352Y-30797618D01*
X35998410Y-31129452D01*
X36000233Y-31133852D01*
X36107824Y-31209333D01*
X36517157Y-30800000D01*
X36107824Y-30390667D01*
X36000233Y-30466148D01*
X35531866Y-30466148D01*
X35528244Y-30447481D01*
X35440188Y-30313431D01*
X35307254Y-30223700D01*
X35150000Y-30192164D01*
X33850000Y-30192164D01*
X33697481Y-30221756D01*
X33563431Y-30309812D01*
X33473700Y-30442746D01*
X33442164Y-30600000D01*
X33442164Y-30817105D01*
X33173366Y-30168170D01*
X32897196Y-29892176D01*
X36390667Y-29892176D01*
X36466148Y-29999767D01*
X36466904Y-29999920D01*
X36466148Y-30000233D01*
X36390667Y-30107824D01*
X36800000Y-30517157D01*
X36814142Y-30503015D01*
X37096985Y-30785858D01*
X37082843Y-30800000D01*
X37492176Y-31209333D01*
X37599767Y-31133852D01*
X37666648Y-30802382D01*
X37666130Y-30799742D01*
X37666148Y-30799767D01*
X37997618Y-30866648D01*
X38329452Y-30801590D01*
X38333852Y-30799767D01*
X38409332Y-30692177D01*
X38447022Y-30729867D01*
X38433352Y-30797618D01*
X38498410Y-31129452D01*
X38500233Y-31133852D01*
X38607824Y-31209333D01*
X39017157Y-30800000D01*
X39003015Y-30785858D01*
X39285858Y-30503015D01*
X39300000Y-30517157D01*
X39709333Y-30107824D01*
X39668766Y-30050000D01*
X39709333Y-29992176D01*
X39300000Y-29582843D01*
X39285858Y-29596985D01*
X39003015Y-29314142D01*
X39017157Y-29300000D01*
X39582843Y-29300000D01*
X39992176Y-29709333D01*
X40099767Y-29633852D01*
X40166648Y-29302382D01*
X40101590Y-28970548D01*
X40099767Y-28966148D01*
X39992176Y-28890667D01*
X39582843Y-29300000D01*
X39017157Y-29300000D01*
X39017157Y-29300000D01*
X38734314Y-29017157D01*
X39300000Y-29017157D01*
X39709333Y-28607824D01*
X39633852Y-28500233D01*
X39302382Y-28433352D01*
X38970548Y-28498410D01*
X37202729Y-28498410D01*
X37133852Y-28400233D01*
X36802382Y-28333352D01*
X36470548Y-28398410D01*
X36466148Y-28400233D01*
X36390667Y-28507824D01*
X36800000Y-28917157D01*
X37209333Y-28507824D01*
X37202729Y-28498410D01*
X38970548Y-28498410D01*
X37202729Y-28498410D01*
X37202729Y-28498410D01*
X38970548Y-28498410D01*
X38966148Y-28500233D01*
X38890667Y-28607824D01*
X39300000Y-29017157D01*
X38734314Y-29017157D01*
X38607824Y-28890667D01*
X38500233Y-28966148D01*
X38436844Y-29280311D01*
X38409332Y-29307823D01*
X38333852Y-29200233D01*
X38002382Y-29133352D01*
X37670548Y-29198410D01*
X37666221Y-29200203D01*
X37601590Y-28870548D01*
X37599767Y-28866148D01*
X37492176Y-28790667D01*
X37082843Y-29200000D01*
X36517157Y-29200000D01*
X36517157Y-29200000D01*
X36107824Y-28790667D01*
X36000233Y-28866148D01*
X35933352Y-29197618D01*
X35998410Y-29529452D01*
X36000233Y-29533852D01*
X36107824Y-29609333D01*
X36517157Y-29200000D01*
X37082843Y-29200000D01*
X36517157Y-29200000D01*
X36517157Y-29200000D01*
X37082843Y-29200000D01*
X37096985Y-29214142D01*
X36814142Y-29496985D01*
X36800000Y-29482843D01*
X36390667Y-29892176D01*
X32897196Y-29892176D01*
X32893930Y-29888913D01*
X31282843Y-31500000D01*
X30717157Y-31500000D01*
X30717157Y-31500000D01*
X29106070Y-29888913D01*
X28826634Y-30168170D01*
X28482402Y-31101260D01*
X28521452Y-32095056D01*
X28826634Y-32831830D01*
X29106070Y-33111087D01*
X30717157Y-31500000D01*
X31282843Y-31500000D01*
X30717157Y-31500000D01*
X30717157Y-31500000D01*
X31282843Y-31500000D01*
X32893930Y-33111087D01*
X32328244Y-33111087D01*
X31000000Y-31782843D01*
X29388913Y-33393930D01*
X29668170Y-33673366D01*
X30601260Y-34017598D01*
X31595056Y-33978548D01*
X32029947Y-33798410D01*
X33470548Y-33798410D01*
X32029947Y-33798410D01*
X32029947Y-33798410D01*
X33470548Y-33798410D01*
X33466148Y-33800233D01*
X33390667Y-33907824D01*
X33800000Y-34317157D01*
X33234314Y-34317157D01*
X33107824Y-34190667D01*
X33000233Y-34266148D01*
X32933352Y-34597618D01*
X32998410Y-34929452D01*
X33000233Y-34933852D01*
X33107824Y-35009333D01*
X33517157Y-34600000D01*
X34082843Y-34600000D01*
X33517157Y-34600000D01*
X33517157Y-34600000D01*
X34082843Y-34600000D01*
X34400580Y-34917737D01*
X33834894Y-34917737D01*
X33800000Y-34882843D01*
X33390667Y-35292176D01*
X33466148Y-35399767D01*
X33466904Y-35399920D01*
X33466148Y-35400233D01*
X33390667Y-35507824D01*
X33800000Y-35917157D01*
X34117157Y-35600000D01*
X34463080Y-35600000D01*
X34117157Y-35600000D01*
X34117157Y-35600000D01*
X34463080Y-35600000D01*
X34400580Y-35662500D01*
X34400580Y-35882263D01*
X34082843Y-36200000D01*
X33517157Y-36200000D01*
X33517157Y-36200000D01*
X33107824Y-35790667D01*
X33000233Y-35866148D01*
X28450000Y-35866148D01*
X28450000Y-29021452D01*
X30404944Y-29021452D01*
X29668170Y-29326634D01*
X29388913Y-29606070D01*
X31000000Y-31217157D01*
X32611087Y-29606070D01*
X32331830Y-29326634D01*
X31398740Y-28982402D01*
X30404944Y-29021452D01*
X28450000Y-29021452D01*
X28450000Y-28850000D01*
X33662500Y-28850000D01*
X33600000Y-28912500D01*
X33600000Y-29449728D01*
X33638060Y-29541614D01*
X33708386Y-29611940D01*
X33800272Y-29650000D01*
X34237500Y-29650000D01*
X34300000Y-29587500D01*
X34300000Y-28850000D01*
X34700000Y-28850000D01*
X34700000Y-29587500D01*
X34762500Y-29650000D01*
X35199728Y-29650000D01*
X35291614Y-29611940D01*
X35361940Y-29541614D01*
X35400000Y-29449728D01*
X35400000Y-28912500D01*
X35337500Y-28850000D01*
X34700000Y-28850000D01*
X34300000Y-28850000D01*
X34300000Y-28850000D01*
X33662500Y-28850000D01*
X28450000Y-28850000D01*
X28450000Y-26044318D01*
X28500010Y-25792898D01*
X28617325Y-25617324D01*
X28792899Y-25500010D01*
X29044318Y-25450000D01*
X32600000Y-25450000D01*
X32600000Y-27400000D01*
X32600000Y-27400000D01*
G37*
X32600000Y-27400000D02*
X32607612Y-27438269D01*
X32629289Y-27470711D01*
X32929289Y-27770711D01*
X32961731Y-27792388D01*
X32961732Y-27792388D01*
X33000000Y-27800000D01*
X33620823Y-27800000D01*
X33600000Y-27850272D01*
X33600000Y-28387500D01*
X33662500Y-28450000D01*
X34300000Y-28450000D01*
X34300000Y-28430000D01*
X34700000Y-28430000D01*
X34700000Y-28450000D01*
X35337500Y-28450000D01*
X35400000Y-28387500D01*
X35400000Y-28041422D01*
X35629289Y-28270711D01*
X35661732Y-28292388D01*
X35700000Y-28300001D01*
X35700000Y-28300000D01*
X35808497Y-28300000D01*
X35825285Y-28311217D01*
X36095000Y-28364867D01*
X36364715Y-28311217D01*
X36381503Y-28300000D01*
X39618497Y-28300000D01*
X39635285Y-28311217D01*
X39905000Y-28364867D01*
X40174715Y-28311217D01*
X40191503Y-28300000D01*
X40258578Y-28300000D01*
X40500000Y-28541422D01*
X40500000Y-29658578D01*
X39829289Y-30329289D01*
X39807612Y-30361731D01*
X39800000Y-30400000D01*
X39800000Y-30582843D01*
X39582843Y-30800000D01*
X39596985Y-30814142D01*
X39314142Y-31096985D01*
X39300000Y-31082843D01*
X38890667Y-31492176D01*
X38966148Y-31599767D01*
X39209674Y-31648904D01*
X39158578Y-31700000D01*
X38921503Y-31700000D01*
X38904715Y-31688783D01*
X38635000Y-31635133D01*
X38365285Y-31688783D01*
X38348497Y-31700000D01*
X38100000Y-31700000D01*
X38061731Y-31707612D01*
X38029289Y-31729289D01*
X37796069Y-31962509D01*
X37598975Y-31859150D01*
X37517400Y-31894083D01*
X37517400Y-32594000D01*
X37585000Y-32594000D01*
X37585000Y-32994000D01*
X37517400Y-32994000D01*
X37517400Y-33693917D01*
X37598975Y-33728850D01*
X37700000Y-33675871D01*
X37700000Y-34200000D01*
X37707612Y-34238268D01*
X37715164Y-34249570D01*
X36663140Y-34249570D01*
X36600640Y-34312070D01*
X36600640Y-35200000D01*
X36620640Y-35200000D01*
X36620640Y-35600000D01*
X36600640Y-35600000D01*
X36600640Y-36487930D01*
X36663140Y-36550430D01*
X38000000Y-36550430D01*
X38000000Y-37550000D01*
X29044318Y-37550000D01*
X28792899Y-37499990D01*
X28617325Y-37382676D01*
X28500010Y-37207102D01*
X28450000Y-36955682D01*
X28450000Y-36892176D01*
X33390667Y-36892176D01*
X33466148Y-36999767D01*
X33797618Y-37066648D01*
X34129452Y-37001590D01*
X34133852Y-36999767D01*
X34209333Y-36892176D01*
X33800000Y-36482843D01*
X33390667Y-36892176D01*
X28450000Y-36892176D01*
X28450000Y-35866148D01*
X33000233Y-35866148D01*
X32933352Y-36197618D01*
X32998410Y-36529452D01*
X33000233Y-36533852D01*
X33107824Y-36609333D01*
X33517157Y-36200000D01*
X34082843Y-36200000D01*
X34492176Y-36609333D01*
X34585312Y-36543993D01*
X34600852Y-36550430D01*
X36138140Y-36550430D01*
X36200640Y-36487930D01*
X36200640Y-35600000D01*
X34463080Y-35600000D01*
X34117157Y-35600000D01*
X34209333Y-35507824D01*
X34133852Y-35400233D01*
X34133096Y-35400080D01*
X34133852Y-35399767D01*
X34209333Y-35292176D01*
X33834894Y-34917737D01*
X34400580Y-34917737D01*
X34400580Y-35137500D01*
X34463080Y-35200000D01*
X36200640Y-35200000D01*
X36200640Y-34312070D01*
X36138140Y-34249570D01*
X34600852Y-34249570D01*
X34585312Y-34256007D01*
X34492176Y-34190667D01*
X34082843Y-34600000D01*
X33517157Y-34600000D01*
X33517157Y-34600000D01*
X33234314Y-34317157D01*
X33800000Y-34317157D01*
X34209333Y-33907824D01*
X34133852Y-33800233D01*
X33802382Y-33733352D01*
X33470548Y-33798410D01*
X32029947Y-33798410D01*
X32331830Y-33673366D01*
X32611087Y-33393930D01*
X32328244Y-33111087D01*
X32893930Y-33111087D01*
X33173366Y-32831830D01*
X33442573Y-32102107D01*
X33471756Y-32252519D01*
X33559812Y-32386569D01*
X33692746Y-32476300D01*
X33850000Y-32507836D01*
X34086410Y-32507836D01*
X34128769Y-32571231D01*
X34722769Y-33165231D01*
X34893091Y-33279037D01*
X35094000Y-33319000D01*
X35404310Y-33319000D01*
X35443850Y-33517782D01*
X35596631Y-33746436D01*
X35825285Y-33899217D01*
X36095000Y-33952867D01*
X36364715Y-33899217D01*
X36593369Y-33746436D01*
X36746150Y-33517782D01*
X36799800Y-33248067D01*
X36799800Y-32994000D01*
X36810200Y-32994000D01*
X36810200Y-33425800D01*
X36928968Y-33622889D01*
X37131025Y-33728850D01*
X37212600Y-33693917D01*
X37212600Y-32994000D01*
X36810200Y-32994000D01*
X36799800Y-32994000D01*
X36799800Y-32339933D01*
X36746150Y-32070218D01*
X36675921Y-31965111D01*
X36928968Y-31965111D01*
X36810200Y-32162200D01*
X36810200Y-32594000D01*
X37212600Y-32594000D01*
X37212600Y-31894083D01*
X37131025Y-31859150D01*
X36928968Y-31965111D01*
X36675921Y-31965111D01*
X36593369Y-31841564D01*
X36364715Y-31688783D01*
X36095000Y-31635133D01*
X35825285Y-31688783D01*
X35596631Y-31841564D01*
X35557836Y-31899625D01*
X35557836Y-31492176D01*
X36390667Y-31492176D01*
X36466148Y-31599767D01*
X36797618Y-31666648D01*
X37129452Y-31601590D01*
X37133852Y-31599767D01*
X37209333Y-31492176D01*
X36800000Y-31082843D01*
X36390667Y-31492176D01*
X35557836Y-31492176D01*
X35557836Y-30600000D01*
X35531866Y-30466148D01*
X36000233Y-30466148D01*
X35933352Y-30797618D01*
X35998410Y-31129452D01*
X36000233Y-31133852D01*
X36107824Y-31209333D01*
X36517157Y-30800000D01*
X36107824Y-30390667D01*
X36000233Y-30466148D01*
X35531866Y-30466148D01*
X35528244Y-30447481D01*
X35440188Y-30313431D01*
X35307254Y-30223700D01*
X35150000Y-30192164D01*
X33850000Y-30192164D01*
X33697481Y-30221756D01*
X33563431Y-30309812D01*
X33473700Y-30442746D01*
X33442164Y-30600000D01*
X33442164Y-30817105D01*
X33173366Y-30168170D01*
X32897196Y-29892176D01*
X36390667Y-29892176D01*
X36466148Y-29999767D01*
X36466904Y-29999920D01*
X36466148Y-30000233D01*
X36390667Y-30107824D01*
X36800000Y-30517157D01*
X36814142Y-30503015D01*
X37096985Y-30785858D01*
X37082843Y-30800000D01*
X37492176Y-31209333D01*
X37599767Y-31133852D01*
X37666648Y-30802382D01*
X37666130Y-30799742D01*
X37666148Y-30799767D01*
X37997618Y-30866648D01*
X38329452Y-30801590D01*
X38333852Y-30799767D01*
X38409332Y-30692177D01*
X38447022Y-30729867D01*
X38433352Y-30797618D01*
X38498410Y-31129452D01*
X38500233Y-31133852D01*
X38607824Y-31209333D01*
X39017157Y-30800000D01*
X39003015Y-30785858D01*
X39285858Y-30503015D01*
X39300000Y-30517157D01*
X39709333Y-30107824D01*
X39668766Y-30050000D01*
X39709333Y-29992176D01*
X39300000Y-29582843D01*
X39285858Y-29596985D01*
X39003015Y-29314142D01*
X39017157Y-29300000D01*
X39582843Y-29300000D01*
X39992176Y-29709333D01*
X40099767Y-29633852D01*
X40166648Y-29302382D01*
X40101590Y-28970548D01*
X40099767Y-28966148D01*
X39992176Y-28890667D01*
X39582843Y-29300000D01*
X39017157Y-29300000D01*
X39017157Y-29300000D01*
X38734314Y-29017157D01*
X39300000Y-29017157D01*
X39709333Y-28607824D01*
X39633852Y-28500233D01*
X39302382Y-28433352D01*
X38970548Y-28498410D01*
X37202729Y-28498410D01*
X37133852Y-28400233D01*
X36802382Y-28333352D01*
X36470548Y-28398410D01*
X36466148Y-28400233D01*
X36390667Y-28507824D01*
X36800000Y-28917157D01*
X37209333Y-28507824D01*
X37202729Y-28498410D01*
X38970548Y-28498410D01*
X37202729Y-28498410D01*
X37202729Y-28498410D01*
X38970548Y-28498410D01*
X38966148Y-28500233D01*
X38890667Y-28607824D01*
X39300000Y-29017157D01*
X38734314Y-29017157D01*
X38607824Y-28890667D01*
X38500233Y-28966148D01*
X38436844Y-29280311D01*
X38409332Y-29307823D01*
X38333852Y-29200233D01*
X38002382Y-29133352D01*
X37670548Y-29198410D01*
X37666221Y-29200203D01*
X37601590Y-28870548D01*
X37599767Y-28866148D01*
X37492176Y-28790667D01*
X37082843Y-29200000D01*
X36517157Y-29200000D01*
X36517157Y-29200000D01*
X36107824Y-28790667D01*
X36000233Y-28866148D01*
X35933352Y-29197618D01*
X35998410Y-29529452D01*
X36000233Y-29533852D01*
X36107824Y-29609333D01*
X36517157Y-29200000D01*
X37082843Y-29200000D01*
X36517157Y-29200000D01*
X36517157Y-29200000D01*
X37082843Y-29200000D01*
X37096985Y-29214142D01*
X36814142Y-29496985D01*
X36800000Y-29482843D01*
X36390667Y-29892176D01*
X32897196Y-29892176D01*
X32893930Y-29888913D01*
X31282843Y-31500000D01*
X30717157Y-31500000D01*
X30717157Y-31500000D01*
X29106070Y-29888913D01*
X28826634Y-30168170D01*
X28482402Y-31101260D01*
X28521452Y-32095056D01*
X28826634Y-32831830D01*
X29106070Y-33111087D01*
X30717157Y-31500000D01*
X31282843Y-31500000D01*
X30717157Y-31500000D01*
X30717157Y-31500000D01*
X31282843Y-31500000D01*
X32893930Y-33111087D01*
X32328244Y-33111087D01*
X31000000Y-31782843D01*
X29388913Y-33393930D01*
X29668170Y-33673366D01*
X30601260Y-34017598D01*
X31595056Y-33978548D01*
X32029947Y-33798410D01*
X33470548Y-33798410D01*
X32029947Y-33798410D01*
X32029947Y-33798410D01*
X33470548Y-33798410D01*
X33466148Y-33800233D01*
X33390667Y-33907824D01*
X33800000Y-34317157D01*
X33234314Y-34317157D01*
X33107824Y-34190667D01*
X33000233Y-34266148D01*
X32933352Y-34597618D01*
X32998410Y-34929452D01*
X33000233Y-34933852D01*
X33107824Y-35009333D01*
X33517157Y-34600000D01*
X34082843Y-34600000D01*
X33517157Y-34600000D01*
X33517157Y-34600000D01*
X34082843Y-34600000D01*
X34400580Y-34917737D01*
X33834894Y-34917737D01*
X33800000Y-34882843D01*
X33390667Y-35292176D01*
X33466148Y-35399767D01*
X33466904Y-35399920D01*
X33466148Y-35400233D01*
X33390667Y-35507824D01*
X33800000Y-35917157D01*
X34117157Y-35600000D01*
X34463080Y-35600000D01*
X34117157Y-35600000D01*
X34117157Y-35600000D01*
X34463080Y-35600000D01*
X34400580Y-35662500D01*
X34400580Y-35882263D01*
X34082843Y-36200000D01*
X33517157Y-36200000D01*
X33517157Y-36200000D01*
X33107824Y-35790667D01*
X33000233Y-35866148D01*
X28450000Y-35866148D01*
X28450000Y-29021452D01*
X30404944Y-29021452D01*
X29668170Y-29326634D01*
X29388913Y-29606070D01*
X31000000Y-31217157D01*
X32611087Y-29606070D01*
X32331830Y-29326634D01*
X31398740Y-28982402D01*
X30404944Y-29021452D01*
X28450000Y-29021452D01*
X28450000Y-28850000D01*
X33662500Y-28850000D01*
X33600000Y-28912500D01*
X33600000Y-29449728D01*
X33638060Y-29541614D01*
X33708386Y-29611940D01*
X33800272Y-29650000D01*
X34237500Y-29650000D01*
X34300000Y-29587500D01*
X34300000Y-28850000D01*
X34700000Y-28850000D01*
X34700000Y-29587500D01*
X34762500Y-29650000D01*
X35199728Y-29650000D01*
X35291614Y-29611940D01*
X35361940Y-29541614D01*
X35400000Y-29449728D01*
X35400000Y-28912500D01*
X35337500Y-28850000D01*
X34700000Y-28850000D01*
X34300000Y-28850000D01*
X34300000Y-28850000D01*
X33662500Y-28850000D01*
X28450000Y-28850000D01*
X28450000Y-26044318D01*
X28500010Y-25792898D01*
X28617325Y-25617324D01*
X28792899Y-25500010D01*
X29044318Y-25450000D01*
X32600000Y-25450000D01*
X32600000Y-27400000D01*
G36*
X38296985Y-29985858D02*
X38282843Y-30000000D01*
X38296985Y-30014142D01*
X38014142Y-30296985D01*
X38000000Y-30282843D01*
X37985858Y-30296985D01*
X37703015Y-30014142D01*
X37717157Y-30000000D01*
X37703015Y-29985858D01*
X37985858Y-29703015D01*
X38000000Y-29717157D01*
X38014142Y-29703015D01*
X38296985Y-29985858D01*
X38296985Y-29985858D01*
G37*
X38296985Y-29985858D02*
X38282843Y-30000000D01*
X38296985Y-30014142D01*
X38014142Y-30296985D01*
X38000000Y-30282843D01*
X37985858Y-30296985D01*
X37703015Y-30014142D01*
X37717157Y-30000000D01*
X37703015Y-29985858D01*
X37985858Y-29703015D01*
X38000000Y-29717157D01*
X38014142Y-29703015D01*
X38296985Y-29985858D01*
M02*
