G04 #@! TF.FileFunction,Copper,L2,Bot,Signal*
%FSLAX46Y46*%
G04 Gerber Fmt 4.6, Leading zero omitted, Abs format (unit mm)*
G04 Created by KiCad (PCBNEW (2015-07-01 BZR 5850)-product) date Fri Aug 28 18:28:50 2015*
%MOMM*%
G01*
G04 APERTURE LIST*
%ADD10C,0.050000*%
%ADD11C,0.100000*%
%ADD12C,1.200000*%
%ADD13O,2.032000X1.727200*%
%ADD14R,2.032000X1.727200*%
%ADD15C,4.500000*%
%ADD16R,2.150000X1.500000*%
%ADD17C,0.800000*%
%ADD18C,0.250000*%
%ADD19C,0.500000*%
%ADD20C,0.200000*%
G04 APERTURE END LIST*
D10*
D11*
X28000000Y-37000000D02*
X28000000Y-26000000D01*
X54000000Y-38000000D02*
X29000000Y-38000000D01*
X55000000Y-26000000D02*
X55000000Y-37000000D01*
X29000000Y-25000000D02*
X54000000Y-25000000D01*
X55000000Y-26000000D02*
G75*
G03X54000000Y-25000000I-1000000J0D01*
G01*
X54000000Y-38000000D02*
G75*
G03X55000000Y-37000000I0J1000000D01*
G01*
X28000000Y-37000000D02*
G75*
G03X29000000Y-38000000I1000000J0D01*
G01*
X29000000Y-25000000D02*
G75*
G03X28000000Y-26000000I0J-1000000D01*
G01*
D12*
X33800000Y-34600000D03*
X50300000Y-32800000D03*
X48700000Y-32800000D03*
X36800000Y-29200000D03*
X39300000Y-30800000D03*
X33800000Y-36200000D03*
X39300000Y-29300000D03*
X36800000Y-30800000D03*
X45800000Y-30100000D03*
X44200000Y-30100000D03*
D13*
X53750000Y-34040000D03*
D14*
X53750000Y-31500000D03*
D13*
X53750000Y-28960000D03*
D12*
X38000000Y-30000000D03*
D15*
X31000000Y-31500000D03*
D16*
X48250000Y-34750000D03*
X48250000Y-28250000D03*
D17*
X46250000Y-35250000D03*
D18*
X48250000Y-28250000D02*
X53040000Y-28250000D01*
X53040000Y-28250000D02*
X53750000Y-28960000D01*
D19*
X48250000Y-34750000D02*
X46750000Y-34750000D01*
X46750000Y-34750000D02*
X46250000Y-35250000D01*
D20*
G36*
X45200000Y-29300000D02*
X45207612Y-29338269D01*
X45229289Y-29370711D01*
X45529289Y-29670711D01*
X45561731Y-29692388D01*
X45561732Y-29692388D01*
X45600000Y-29700000D01*
X45682843Y-29700000D01*
X45800000Y-29817157D01*
X45814142Y-29803015D01*
X46096985Y-30085858D01*
X46082843Y-30100000D01*
X46492176Y-30509333D01*
X46599767Y-30433852D01*
X46666648Y-30102382D01*
X46601590Y-29770548D01*
X46599767Y-29766148D01*
X46505479Y-29700000D01*
X51758578Y-29700000D01*
X52000000Y-29941422D01*
X52000000Y-30300000D01*
X52007612Y-30338269D01*
X52029289Y-30370711D01*
X52329289Y-30670711D01*
X52361731Y-30692388D01*
X52361732Y-30692388D01*
X52400000Y-30700000D01*
X52484000Y-30700000D01*
X52484000Y-31237500D01*
X52546500Y-31300000D01*
X53550000Y-31300000D01*
X53550000Y-31280000D01*
X53950000Y-31280000D01*
X53950000Y-31300000D01*
X53970000Y-31300000D01*
X53970000Y-31700000D01*
X53950000Y-31700000D01*
X53950000Y-31720000D01*
X53550000Y-31720000D01*
X53550000Y-31700000D01*
X52546500Y-31700000D01*
X52484000Y-31762500D01*
X52484000Y-32300000D01*
X52400000Y-32300000D01*
X52361731Y-32307612D01*
X52329289Y-32329289D01*
X52029289Y-32629289D01*
X52007612Y-32661731D01*
X52000000Y-32700000D01*
X52000000Y-33258578D01*
X51758578Y-33500000D01*
X50703844Y-33500000D01*
X50709333Y-33492176D01*
X50300000Y-33082843D01*
X49890667Y-33492176D01*
X49896156Y-33500000D01*
X49103844Y-33500000D01*
X49109333Y-33492176D01*
X48826490Y-33209333D01*
X49392176Y-33209333D01*
X49499767Y-33133852D01*
X49499920Y-33133096D01*
X49500233Y-33133852D01*
X49607824Y-33209333D01*
X50017157Y-32800000D01*
X50582843Y-32800000D01*
X50992176Y-33209333D01*
X51099767Y-33133852D01*
X51166648Y-32802382D01*
X51101590Y-32470548D01*
X51099767Y-32466148D01*
X50992176Y-32390667D01*
X50582843Y-32800000D01*
X50017157Y-32800000D01*
X50017157Y-32800000D01*
X49607824Y-32390667D01*
X49500233Y-32466148D01*
X49500080Y-32466904D01*
X49499767Y-32466148D01*
X49392176Y-32390667D01*
X48826490Y-32390667D01*
X49109333Y-32107824D01*
X49033852Y-32000233D01*
X49024818Y-31998410D01*
X49970548Y-31998410D01*
X49966148Y-32000233D01*
X49890667Y-32107824D01*
X50300000Y-32517157D01*
X50709333Y-32107824D01*
X50633852Y-32000233D01*
X50302382Y-31933352D01*
X49970548Y-31998410D01*
X49024818Y-31998410D01*
X48702382Y-31933352D01*
X48370548Y-31998410D01*
X48366148Y-32000233D01*
X48290667Y-32107824D01*
X48700000Y-32517157D01*
X48826490Y-32390667D01*
X49392176Y-32390667D01*
X48826490Y-32390667D01*
X48826490Y-32390667D01*
X49392176Y-32390667D01*
X48982843Y-32800000D01*
X48417157Y-32800000D01*
X48417157Y-32800000D01*
X48007824Y-32390667D01*
X47900233Y-32466148D01*
X47833352Y-32797618D01*
X47898410Y-33129452D01*
X47900233Y-33133852D01*
X48007824Y-33209333D01*
X48417157Y-32800000D01*
X48982843Y-32800000D01*
X48417157Y-32800000D01*
X48417157Y-32800000D01*
X48982843Y-32800000D01*
X49392176Y-33209333D01*
X48826490Y-33209333D01*
X48700000Y-33082843D01*
X48290667Y-33492176D01*
X48296156Y-33500000D01*
X45600000Y-33500000D01*
X45561731Y-33507612D01*
X45529289Y-33529289D01*
X45229289Y-33829289D01*
X45207612Y-33861731D01*
X45200000Y-33900000D01*
X45200000Y-37550000D01*
X29044318Y-37550000D01*
X28792899Y-37499990D01*
X28617325Y-37382676D01*
X28500010Y-37207102D01*
X28450000Y-36955682D01*
X28450000Y-36892176D01*
X33390667Y-36892176D01*
X33466148Y-36999767D01*
X33797618Y-37066648D01*
X34129452Y-37001590D01*
X34133852Y-36999767D01*
X34209333Y-36892176D01*
X33926490Y-36609333D01*
X34492176Y-36609333D01*
X34599767Y-36533852D01*
X34666648Y-36202382D01*
X34601590Y-35870548D01*
X34599767Y-35866148D01*
X34492176Y-35790667D01*
X34082843Y-36200000D01*
X33517157Y-36200000D01*
X33517157Y-36200000D01*
X33107824Y-35790667D01*
X33000233Y-35866148D01*
X32933352Y-36197618D01*
X32998410Y-36529452D01*
X33000233Y-36533852D01*
X33107824Y-36609333D01*
X33517157Y-36200000D01*
X34082843Y-36200000D01*
X33517157Y-36200000D01*
X33517157Y-36200000D01*
X34082843Y-36200000D01*
X34492176Y-36609333D01*
X33926490Y-36609333D01*
X33800000Y-36482843D01*
X33390667Y-36892176D01*
X28450000Y-36892176D01*
X28450000Y-35292176D01*
X33390667Y-35292176D01*
X33466148Y-35399767D01*
X33466904Y-35399920D01*
X33466148Y-35400233D01*
X33390667Y-35507824D01*
X33800000Y-35917157D01*
X34209333Y-35507824D01*
X34133852Y-35400233D01*
X34133096Y-35400080D01*
X34133852Y-35399767D01*
X34209333Y-35292176D01*
X33800000Y-34882843D01*
X33390667Y-35292176D01*
X28450000Y-35292176D01*
X28450000Y-34266148D01*
X33000233Y-34266148D01*
X32933352Y-34597618D01*
X32998410Y-34929452D01*
X33000233Y-34933852D01*
X33107824Y-35009333D01*
X33517157Y-34600000D01*
X34082843Y-34600000D01*
X34492176Y-35009333D01*
X34599767Y-34933852D01*
X34666648Y-34602382D01*
X34601590Y-34270548D01*
X34599767Y-34266148D01*
X34492176Y-34190667D01*
X34082843Y-34600000D01*
X33517157Y-34600000D01*
X33517157Y-34600000D01*
X33234314Y-34317157D01*
X33800000Y-34317157D01*
X34209333Y-33907824D01*
X34133852Y-33800233D01*
X33802382Y-33733352D01*
X33470548Y-33798410D01*
X32029947Y-33798410D01*
X32331830Y-33673366D01*
X32611087Y-33393930D01*
X31000000Y-31782843D01*
X29388913Y-33393930D01*
X29668170Y-33673366D01*
X30601260Y-34017598D01*
X31595056Y-33978548D01*
X32029947Y-33798410D01*
X33470548Y-33798410D01*
X32029947Y-33798410D01*
X32029947Y-33798410D01*
X33470548Y-33798410D01*
X33466148Y-33800233D01*
X33390667Y-33907824D01*
X33800000Y-34317157D01*
X33234314Y-34317157D01*
X33107824Y-34190667D01*
X33000233Y-34266148D01*
X28450000Y-34266148D01*
X28450000Y-30168170D01*
X28826634Y-30168170D01*
X28482402Y-31101260D01*
X28521452Y-32095056D01*
X28826634Y-32831830D01*
X29106070Y-33111087D01*
X30717157Y-31500000D01*
X31282843Y-31500000D01*
X32893930Y-33111087D01*
X33173366Y-32831830D01*
X33517598Y-31898740D01*
X33501623Y-31492176D01*
X36390667Y-31492176D01*
X36466148Y-31599767D01*
X36797618Y-31666648D01*
X37129452Y-31601590D01*
X37133852Y-31599767D01*
X37209333Y-31492176D01*
X38890667Y-31492176D01*
X37209333Y-31492176D01*
X37209333Y-31492176D01*
X38890667Y-31492176D01*
X38966148Y-31599767D01*
X39297618Y-31666648D01*
X39629452Y-31601590D01*
X39633852Y-31599767D01*
X39709333Y-31492176D01*
X39300000Y-31082843D01*
X38734314Y-31082843D01*
X39017157Y-30800000D01*
X39017157Y-30800000D01*
X39582843Y-30800000D01*
X39992176Y-31209333D01*
X40099767Y-31133852D01*
X40166648Y-30802382D01*
X40164648Y-30792176D01*
X43790667Y-30792176D01*
X43866148Y-30899767D01*
X44197618Y-30966648D01*
X44529452Y-30901590D01*
X44533852Y-30899767D01*
X44609333Y-30792176D01*
X45390667Y-30792176D01*
X44609333Y-30792176D01*
X44609333Y-30792176D01*
X45390667Y-30792176D01*
X45466148Y-30899767D01*
X45797618Y-30966648D01*
X46129452Y-30901590D01*
X46133852Y-30899767D01*
X46209333Y-30792176D01*
X45800000Y-30382843D01*
X45234314Y-30382843D01*
X45517157Y-30100000D01*
X45107824Y-29690667D01*
X45000233Y-29766148D01*
X45000080Y-29766904D01*
X44999767Y-29766148D01*
X44892176Y-29690667D01*
X44482843Y-30100000D01*
X44892176Y-30509333D01*
X44999767Y-30433852D01*
X44999920Y-30433096D01*
X45000233Y-30433852D01*
X45107824Y-30509333D01*
X45234314Y-30382843D01*
X45800000Y-30382843D01*
X45234314Y-30382843D01*
X45234314Y-30382843D01*
X45800000Y-30382843D01*
X45390667Y-30792176D01*
X44609333Y-30792176D01*
X44609333Y-30792176D01*
X44200000Y-30382843D01*
X43790667Y-30792176D01*
X40164648Y-30792176D01*
X40101590Y-30470548D01*
X40099767Y-30466148D01*
X39992176Y-30390667D01*
X39582843Y-30800000D01*
X39017157Y-30800000D01*
X39003015Y-30785858D01*
X39285858Y-30503015D01*
X39300000Y-30517157D01*
X39709333Y-30107824D01*
X39668766Y-30050000D01*
X39709333Y-29992176D01*
X39483305Y-29766148D01*
X43400233Y-29766148D01*
X43333352Y-30097618D01*
X43398410Y-30429452D01*
X43400233Y-30433852D01*
X43507824Y-30509333D01*
X43917157Y-30100000D01*
X43634314Y-29817157D01*
X44200000Y-29817157D01*
X44609333Y-29407824D01*
X44533852Y-29300233D01*
X44202382Y-29233352D01*
X43870548Y-29298410D01*
X40165870Y-29298410D01*
X40101590Y-28970548D01*
X40099767Y-28966148D01*
X39992176Y-28890667D01*
X39582843Y-29300000D01*
X39992176Y-29709333D01*
X40099767Y-29633852D01*
X40166648Y-29302382D01*
X40165870Y-29298410D01*
X43870548Y-29298410D01*
X40165870Y-29298410D01*
X40165870Y-29298410D01*
X43870548Y-29298410D01*
X43866148Y-29300233D01*
X43790667Y-29407824D01*
X44200000Y-29817157D01*
X43634314Y-29817157D01*
X43507824Y-29690667D01*
X43400233Y-29766148D01*
X39483305Y-29766148D01*
X39300000Y-29582843D01*
X39285858Y-29596985D01*
X39003015Y-29314142D01*
X39017157Y-29300000D01*
X38734314Y-29017157D01*
X39300000Y-29017157D01*
X39709333Y-28607824D01*
X39633852Y-28500233D01*
X39302382Y-28433352D01*
X38970548Y-28498410D01*
X37202729Y-28498410D01*
X37133852Y-28400233D01*
X36802382Y-28333352D01*
X36470548Y-28398410D01*
X36466148Y-28400233D01*
X36390667Y-28507824D01*
X36800000Y-28917157D01*
X37209333Y-28507824D01*
X37202729Y-28498410D01*
X38970548Y-28498410D01*
X37202729Y-28498410D01*
X37202729Y-28498410D01*
X38970548Y-28498410D01*
X38966148Y-28500233D01*
X38890667Y-28607824D01*
X39300000Y-29017157D01*
X38734314Y-29017157D01*
X38607824Y-28890667D01*
X38500233Y-28966148D01*
X38436844Y-29280311D01*
X38409332Y-29307823D01*
X38333852Y-29200233D01*
X38002382Y-29133352D01*
X37670548Y-29198410D01*
X37666221Y-29200203D01*
X37601590Y-28870548D01*
X37599767Y-28866148D01*
X37492176Y-28790667D01*
X37082843Y-29200000D01*
X37096985Y-29214142D01*
X36814142Y-29496985D01*
X36800000Y-29482843D01*
X36390667Y-29892176D01*
X36466148Y-29999767D01*
X36466904Y-29999920D01*
X36466148Y-30000233D01*
X36390667Y-30107824D01*
X36800000Y-30517157D01*
X36814142Y-30503015D01*
X37096985Y-30785858D01*
X37082843Y-30800000D01*
X37492176Y-31209333D01*
X37599767Y-31133852D01*
X37666648Y-30802382D01*
X37666130Y-30799742D01*
X37666148Y-30799767D01*
X37997618Y-30866648D01*
X38329452Y-30801590D01*
X38333852Y-30799767D01*
X38409332Y-30692177D01*
X38447022Y-30729867D01*
X38433352Y-30797618D01*
X38498410Y-31129452D01*
X38500233Y-31133852D01*
X38607824Y-31209333D01*
X38734314Y-31082843D01*
X39300000Y-31082843D01*
X38734314Y-31082843D01*
X38734314Y-31082843D01*
X39300000Y-31082843D01*
X38890667Y-31492176D01*
X37209333Y-31492176D01*
X37209333Y-31492176D01*
X36800000Y-31082843D01*
X36390667Y-31492176D01*
X33501623Y-31492176D01*
X33478548Y-30904944D01*
X33296793Y-30466148D01*
X36000233Y-30466148D01*
X35933352Y-30797618D01*
X35998410Y-31129452D01*
X36000233Y-31133852D01*
X36107824Y-31209333D01*
X36517157Y-30800000D01*
X36107824Y-30390667D01*
X36000233Y-30466148D01*
X33296793Y-30466148D01*
X33173366Y-30168170D01*
X32893930Y-29888913D01*
X31282843Y-31500000D01*
X30717157Y-31500000D01*
X30717157Y-31500000D01*
X29106070Y-29888913D01*
X28826634Y-30168170D01*
X28450000Y-30168170D01*
X28450000Y-29021452D01*
X30404944Y-29021452D01*
X29668170Y-29326634D01*
X29388913Y-29606070D01*
X31000000Y-31217157D01*
X32611087Y-29606070D01*
X32331830Y-29326634D01*
X31398740Y-28982402D01*
X30404944Y-29021452D01*
X28450000Y-29021452D01*
X28450000Y-28866148D01*
X36000233Y-28866148D01*
X35933352Y-29197618D01*
X35998410Y-29529452D01*
X36000233Y-29533852D01*
X36107824Y-29609333D01*
X36517157Y-29200000D01*
X36107824Y-28790667D01*
X36000233Y-28866148D01*
X28450000Y-28866148D01*
X28450000Y-26044318D01*
X28500010Y-25792898D01*
X28617325Y-25617324D01*
X28792899Y-25500010D01*
X29044318Y-25450000D01*
X45200000Y-25450000D01*
X45200000Y-29300000D01*
X45200000Y-29300000D01*
G37*
X45200000Y-29300000D02*
X45207612Y-29338269D01*
X45229289Y-29370711D01*
X45529289Y-29670711D01*
X45561731Y-29692388D01*
X45561732Y-29692388D01*
X45600000Y-29700000D01*
X45682843Y-29700000D01*
X45800000Y-29817157D01*
X45814142Y-29803015D01*
X46096985Y-30085858D01*
X46082843Y-30100000D01*
X46492176Y-30509333D01*
X46599767Y-30433852D01*
X46666648Y-30102382D01*
X46601590Y-29770548D01*
X46599767Y-29766148D01*
X46505479Y-29700000D01*
X51758578Y-29700000D01*
X52000000Y-29941422D01*
X52000000Y-30300000D01*
X52007612Y-30338269D01*
X52029289Y-30370711D01*
X52329289Y-30670711D01*
X52361731Y-30692388D01*
X52361732Y-30692388D01*
X52400000Y-30700000D01*
X52484000Y-30700000D01*
X52484000Y-31237500D01*
X52546500Y-31300000D01*
X53550000Y-31300000D01*
X53550000Y-31280000D01*
X53950000Y-31280000D01*
X53950000Y-31300000D01*
X53970000Y-31300000D01*
X53970000Y-31700000D01*
X53950000Y-31700000D01*
X53950000Y-31720000D01*
X53550000Y-31720000D01*
X53550000Y-31700000D01*
X52546500Y-31700000D01*
X52484000Y-31762500D01*
X52484000Y-32300000D01*
X52400000Y-32300000D01*
X52361731Y-32307612D01*
X52329289Y-32329289D01*
X52029289Y-32629289D01*
X52007612Y-32661731D01*
X52000000Y-32700000D01*
X52000000Y-33258578D01*
X51758578Y-33500000D01*
X50703844Y-33500000D01*
X50709333Y-33492176D01*
X50300000Y-33082843D01*
X49890667Y-33492176D01*
X49896156Y-33500000D01*
X49103844Y-33500000D01*
X49109333Y-33492176D01*
X48826490Y-33209333D01*
X49392176Y-33209333D01*
X49499767Y-33133852D01*
X49499920Y-33133096D01*
X49500233Y-33133852D01*
X49607824Y-33209333D01*
X50017157Y-32800000D01*
X50582843Y-32800000D01*
X50992176Y-33209333D01*
X51099767Y-33133852D01*
X51166648Y-32802382D01*
X51101590Y-32470548D01*
X51099767Y-32466148D01*
X50992176Y-32390667D01*
X50582843Y-32800000D01*
X50017157Y-32800000D01*
X50017157Y-32800000D01*
X49607824Y-32390667D01*
X49500233Y-32466148D01*
X49500080Y-32466904D01*
X49499767Y-32466148D01*
X49392176Y-32390667D01*
X48826490Y-32390667D01*
X49109333Y-32107824D01*
X49033852Y-32000233D01*
X49024818Y-31998410D01*
X49970548Y-31998410D01*
X49966148Y-32000233D01*
X49890667Y-32107824D01*
X50300000Y-32517157D01*
X50709333Y-32107824D01*
X50633852Y-32000233D01*
X50302382Y-31933352D01*
X49970548Y-31998410D01*
X49024818Y-31998410D01*
X48702382Y-31933352D01*
X48370548Y-31998410D01*
X48366148Y-32000233D01*
X48290667Y-32107824D01*
X48700000Y-32517157D01*
X48826490Y-32390667D01*
X49392176Y-32390667D01*
X48826490Y-32390667D01*
X48826490Y-32390667D01*
X49392176Y-32390667D01*
X48982843Y-32800000D01*
X48417157Y-32800000D01*
X48417157Y-32800000D01*
X48007824Y-32390667D01*
X47900233Y-32466148D01*
X47833352Y-32797618D01*
X47898410Y-33129452D01*
X47900233Y-33133852D01*
X48007824Y-33209333D01*
X48417157Y-32800000D01*
X48982843Y-32800000D01*
X48417157Y-32800000D01*
X48417157Y-32800000D01*
X48982843Y-32800000D01*
X49392176Y-33209333D01*
X48826490Y-33209333D01*
X48700000Y-33082843D01*
X48290667Y-33492176D01*
X48296156Y-33500000D01*
X45600000Y-33500000D01*
X45561731Y-33507612D01*
X45529289Y-33529289D01*
X45229289Y-33829289D01*
X45207612Y-33861731D01*
X45200000Y-33900000D01*
X45200000Y-37550000D01*
X29044318Y-37550000D01*
X28792899Y-37499990D01*
X28617325Y-37382676D01*
X28500010Y-37207102D01*
X28450000Y-36955682D01*
X28450000Y-36892176D01*
X33390667Y-36892176D01*
X33466148Y-36999767D01*
X33797618Y-37066648D01*
X34129452Y-37001590D01*
X34133852Y-36999767D01*
X34209333Y-36892176D01*
X33926490Y-36609333D01*
X34492176Y-36609333D01*
X34599767Y-36533852D01*
X34666648Y-36202382D01*
X34601590Y-35870548D01*
X34599767Y-35866148D01*
X34492176Y-35790667D01*
X34082843Y-36200000D01*
X33517157Y-36200000D01*
X33517157Y-36200000D01*
X33107824Y-35790667D01*
X33000233Y-35866148D01*
X32933352Y-36197618D01*
X32998410Y-36529452D01*
X33000233Y-36533852D01*
X33107824Y-36609333D01*
X33517157Y-36200000D01*
X34082843Y-36200000D01*
X33517157Y-36200000D01*
X33517157Y-36200000D01*
X34082843Y-36200000D01*
X34492176Y-36609333D01*
X33926490Y-36609333D01*
X33800000Y-36482843D01*
X33390667Y-36892176D01*
X28450000Y-36892176D01*
X28450000Y-35292176D01*
X33390667Y-35292176D01*
X33466148Y-35399767D01*
X33466904Y-35399920D01*
X33466148Y-35400233D01*
X33390667Y-35507824D01*
X33800000Y-35917157D01*
X34209333Y-35507824D01*
X34133852Y-35400233D01*
X34133096Y-35400080D01*
X34133852Y-35399767D01*
X34209333Y-35292176D01*
X33800000Y-34882843D01*
X33390667Y-35292176D01*
X28450000Y-35292176D01*
X28450000Y-34266148D01*
X33000233Y-34266148D01*
X32933352Y-34597618D01*
X32998410Y-34929452D01*
X33000233Y-34933852D01*
X33107824Y-35009333D01*
X33517157Y-34600000D01*
X34082843Y-34600000D01*
X34492176Y-35009333D01*
X34599767Y-34933852D01*
X34666648Y-34602382D01*
X34601590Y-34270548D01*
X34599767Y-34266148D01*
X34492176Y-34190667D01*
X34082843Y-34600000D01*
X33517157Y-34600000D01*
X33517157Y-34600000D01*
X33234314Y-34317157D01*
X33800000Y-34317157D01*
X34209333Y-33907824D01*
X34133852Y-33800233D01*
X33802382Y-33733352D01*
X33470548Y-33798410D01*
X32029947Y-33798410D01*
X32331830Y-33673366D01*
X32611087Y-33393930D01*
X31000000Y-31782843D01*
X29388913Y-33393930D01*
X29668170Y-33673366D01*
X30601260Y-34017598D01*
X31595056Y-33978548D01*
X32029947Y-33798410D01*
X33470548Y-33798410D01*
X32029947Y-33798410D01*
X32029947Y-33798410D01*
X33470548Y-33798410D01*
X33466148Y-33800233D01*
X33390667Y-33907824D01*
X33800000Y-34317157D01*
X33234314Y-34317157D01*
X33107824Y-34190667D01*
X33000233Y-34266148D01*
X28450000Y-34266148D01*
X28450000Y-30168170D01*
X28826634Y-30168170D01*
X28482402Y-31101260D01*
X28521452Y-32095056D01*
X28826634Y-32831830D01*
X29106070Y-33111087D01*
X30717157Y-31500000D01*
X31282843Y-31500000D01*
X32893930Y-33111087D01*
X33173366Y-32831830D01*
X33517598Y-31898740D01*
X33501623Y-31492176D01*
X36390667Y-31492176D01*
X36466148Y-31599767D01*
X36797618Y-31666648D01*
X37129452Y-31601590D01*
X37133852Y-31599767D01*
X37209333Y-31492176D01*
X38890667Y-31492176D01*
X37209333Y-31492176D01*
X37209333Y-31492176D01*
X38890667Y-31492176D01*
X38966148Y-31599767D01*
X39297618Y-31666648D01*
X39629452Y-31601590D01*
X39633852Y-31599767D01*
X39709333Y-31492176D01*
X39300000Y-31082843D01*
X38734314Y-31082843D01*
X39017157Y-30800000D01*
X39017157Y-30800000D01*
X39582843Y-30800000D01*
X39992176Y-31209333D01*
X40099767Y-31133852D01*
X40166648Y-30802382D01*
X40164648Y-30792176D01*
X43790667Y-30792176D01*
X43866148Y-30899767D01*
X44197618Y-30966648D01*
X44529452Y-30901590D01*
X44533852Y-30899767D01*
X44609333Y-30792176D01*
X45390667Y-30792176D01*
X44609333Y-30792176D01*
X44609333Y-30792176D01*
X45390667Y-30792176D01*
X45466148Y-30899767D01*
X45797618Y-30966648D01*
X46129452Y-30901590D01*
X46133852Y-30899767D01*
X46209333Y-30792176D01*
X45800000Y-30382843D01*
X45234314Y-30382843D01*
X45517157Y-30100000D01*
X45107824Y-29690667D01*
X45000233Y-29766148D01*
X45000080Y-29766904D01*
X44999767Y-29766148D01*
X44892176Y-29690667D01*
X44482843Y-30100000D01*
X44892176Y-30509333D01*
X44999767Y-30433852D01*
X44999920Y-30433096D01*
X45000233Y-30433852D01*
X45107824Y-30509333D01*
X45234314Y-30382843D01*
X45800000Y-30382843D01*
X45234314Y-30382843D01*
X45234314Y-30382843D01*
X45800000Y-30382843D01*
X45390667Y-30792176D01*
X44609333Y-30792176D01*
X44609333Y-30792176D01*
X44200000Y-30382843D01*
X43790667Y-30792176D01*
X40164648Y-30792176D01*
X40101590Y-30470548D01*
X40099767Y-30466148D01*
X39992176Y-30390667D01*
X39582843Y-30800000D01*
X39017157Y-30800000D01*
X39003015Y-30785858D01*
X39285858Y-30503015D01*
X39300000Y-30517157D01*
X39709333Y-30107824D01*
X39668766Y-30050000D01*
X39709333Y-29992176D01*
X39483305Y-29766148D01*
X43400233Y-29766148D01*
X43333352Y-30097618D01*
X43398410Y-30429452D01*
X43400233Y-30433852D01*
X43507824Y-30509333D01*
X43917157Y-30100000D01*
X43634314Y-29817157D01*
X44200000Y-29817157D01*
X44609333Y-29407824D01*
X44533852Y-29300233D01*
X44202382Y-29233352D01*
X43870548Y-29298410D01*
X40165870Y-29298410D01*
X40101590Y-28970548D01*
X40099767Y-28966148D01*
X39992176Y-28890667D01*
X39582843Y-29300000D01*
X39992176Y-29709333D01*
X40099767Y-29633852D01*
X40166648Y-29302382D01*
X40165870Y-29298410D01*
X43870548Y-29298410D01*
X40165870Y-29298410D01*
X40165870Y-29298410D01*
X43870548Y-29298410D01*
X43866148Y-29300233D01*
X43790667Y-29407824D01*
X44200000Y-29817157D01*
X43634314Y-29817157D01*
X43507824Y-29690667D01*
X43400233Y-29766148D01*
X39483305Y-29766148D01*
X39300000Y-29582843D01*
X39285858Y-29596985D01*
X39003015Y-29314142D01*
X39017157Y-29300000D01*
X38734314Y-29017157D01*
X39300000Y-29017157D01*
X39709333Y-28607824D01*
X39633852Y-28500233D01*
X39302382Y-28433352D01*
X38970548Y-28498410D01*
X37202729Y-28498410D01*
X37133852Y-28400233D01*
X36802382Y-28333352D01*
X36470548Y-28398410D01*
X36466148Y-28400233D01*
X36390667Y-28507824D01*
X36800000Y-28917157D01*
X37209333Y-28507824D01*
X37202729Y-28498410D01*
X38970548Y-28498410D01*
X37202729Y-28498410D01*
X37202729Y-28498410D01*
X38970548Y-28498410D01*
X38966148Y-28500233D01*
X38890667Y-28607824D01*
X39300000Y-29017157D01*
X38734314Y-29017157D01*
X38607824Y-28890667D01*
X38500233Y-28966148D01*
X38436844Y-29280311D01*
X38409332Y-29307823D01*
X38333852Y-29200233D01*
X38002382Y-29133352D01*
X37670548Y-29198410D01*
X37666221Y-29200203D01*
X37601590Y-28870548D01*
X37599767Y-28866148D01*
X37492176Y-28790667D01*
X37082843Y-29200000D01*
X37096985Y-29214142D01*
X36814142Y-29496985D01*
X36800000Y-29482843D01*
X36390667Y-29892176D01*
X36466148Y-29999767D01*
X36466904Y-29999920D01*
X36466148Y-30000233D01*
X36390667Y-30107824D01*
X36800000Y-30517157D01*
X36814142Y-30503015D01*
X37096985Y-30785858D01*
X37082843Y-30800000D01*
X37492176Y-31209333D01*
X37599767Y-31133852D01*
X37666648Y-30802382D01*
X37666130Y-30799742D01*
X37666148Y-30799767D01*
X37997618Y-30866648D01*
X38329452Y-30801590D01*
X38333852Y-30799767D01*
X38409332Y-30692177D01*
X38447022Y-30729867D01*
X38433352Y-30797618D01*
X38498410Y-31129452D01*
X38500233Y-31133852D01*
X38607824Y-31209333D01*
X38734314Y-31082843D01*
X39300000Y-31082843D01*
X38734314Y-31082843D01*
X38734314Y-31082843D01*
X39300000Y-31082843D01*
X38890667Y-31492176D01*
X37209333Y-31492176D01*
X37209333Y-31492176D01*
X36800000Y-31082843D01*
X36390667Y-31492176D01*
X33501623Y-31492176D01*
X33478548Y-30904944D01*
X33296793Y-30466148D01*
X36000233Y-30466148D01*
X35933352Y-30797618D01*
X35998410Y-31129452D01*
X36000233Y-31133852D01*
X36107824Y-31209333D01*
X36517157Y-30800000D01*
X36107824Y-30390667D01*
X36000233Y-30466148D01*
X33296793Y-30466148D01*
X33173366Y-30168170D01*
X32893930Y-29888913D01*
X31282843Y-31500000D01*
X30717157Y-31500000D01*
X30717157Y-31500000D01*
X29106070Y-29888913D01*
X28826634Y-30168170D01*
X28450000Y-30168170D01*
X28450000Y-29021452D01*
X30404944Y-29021452D01*
X29668170Y-29326634D01*
X29388913Y-29606070D01*
X31000000Y-31217157D01*
X32611087Y-29606070D01*
X32331830Y-29326634D01*
X31398740Y-28982402D01*
X30404944Y-29021452D01*
X28450000Y-29021452D01*
X28450000Y-28866148D01*
X36000233Y-28866148D01*
X35933352Y-29197618D01*
X35998410Y-29529452D01*
X36000233Y-29533852D01*
X36107824Y-29609333D01*
X36517157Y-29200000D01*
X36107824Y-28790667D01*
X36000233Y-28866148D01*
X28450000Y-28866148D01*
X28450000Y-26044318D01*
X28500010Y-25792898D01*
X28617325Y-25617324D01*
X28792899Y-25500010D01*
X29044318Y-25450000D01*
X45200000Y-25450000D01*
X45200000Y-29300000D01*
G36*
X38296985Y-29985858D02*
X38282843Y-30000000D01*
X38296985Y-30014142D01*
X38014142Y-30296985D01*
X38000000Y-30282843D01*
X37985858Y-30296985D01*
X37703015Y-30014142D01*
X37717157Y-30000000D01*
X37703015Y-29985858D01*
X37985858Y-29703015D01*
X38000000Y-29717157D01*
X38014142Y-29703015D01*
X38296985Y-29985858D01*
X38296985Y-29985858D01*
G37*
X38296985Y-29985858D02*
X38282843Y-30000000D01*
X38296985Y-30014142D01*
X38014142Y-30296985D01*
X38000000Y-30282843D01*
X37985858Y-30296985D01*
X37703015Y-30014142D01*
X37717157Y-30000000D01*
X37703015Y-29985858D01*
X37985858Y-29703015D01*
X38000000Y-29717157D01*
X38014142Y-29703015D01*
X38296985Y-29985858D01*
G36*
X54207102Y-25500010D02*
X54382676Y-25617325D01*
X54499990Y-25792899D01*
X54550000Y-26044318D01*
X54550000Y-28066612D01*
X54522605Y-28039018D01*
X54122950Y-27871782D01*
X53950000Y-27913178D01*
X53950000Y-28760000D01*
X53970000Y-28760000D01*
X53970000Y-28900000D01*
X53530000Y-28900000D01*
X53530000Y-28760000D01*
X53550000Y-28760000D01*
X53550000Y-27913178D01*
X53377050Y-27871782D01*
X52977395Y-28039018D01*
X52672161Y-28346466D01*
X52546881Y-28591089D01*
X52565703Y-28759998D01*
X52484000Y-28759998D01*
X52484000Y-28900000D01*
X49575000Y-28900000D01*
X49575000Y-28512500D01*
X49512500Y-28450000D01*
X48450000Y-28450000D01*
X48450000Y-28470000D01*
X48050000Y-28470000D01*
X48050000Y-28450000D01*
X46987500Y-28450000D01*
X46925000Y-28512500D01*
X46925000Y-28683578D01*
X46900000Y-28658578D01*
X46900000Y-27250000D01*
X47125272Y-27250000D01*
X47033386Y-27288060D01*
X46963060Y-27358386D01*
X46925000Y-27450272D01*
X46925000Y-27987500D01*
X46987500Y-28050000D01*
X48050000Y-28050000D01*
X48050000Y-27312500D01*
X47987500Y-27250000D01*
X48512500Y-27250000D01*
X48450000Y-27312500D01*
X48450000Y-28050000D01*
X49512500Y-28050000D01*
X49575000Y-27987500D01*
X49575000Y-27450272D01*
X49536940Y-27358386D01*
X49466614Y-27288060D01*
X49374728Y-27250000D01*
X48512500Y-27250000D01*
X47987500Y-27250000D01*
X47987500Y-27250000D01*
X47125272Y-27250000D01*
X46900000Y-27250000D01*
X46900000Y-25450000D01*
X53955682Y-25450000D01*
X54207102Y-25500010D01*
X54207102Y-25500010D01*
G37*
X54207102Y-25500010D02*
X54382676Y-25617325D01*
X54499990Y-25792899D01*
X54550000Y-26044318D01*
X54550000Y-28066612D01*
X54522605Y-28039018D01*
X54122950Y-27871782D01*
X53950000Y-27913178D01*
X53950000Y-28760000D01*
X53970000Y-28760000D01*
X53970000Y-28900000D01*
X53530000Y-28900000D01*
X53530000Y-28760000D01*
X53550000Y-28760000D01*
X53550000Y-27913178D01*
X53377050Y-27871782D01*
X52977395Y-28039018D01*
X52672161Y-28346466D01*
X52546881Y-28591089D01*
X52565703Y-28759998D01*
X52484000Y-28759998D01*
X52484000Y-28900000D01*
X49575000Y-28900000D01*
X49575000Y-28512500D01*
X49512500Y-28450000D01*
X48450000Y-28450000D01*
X48450000Y-28470000D01*
X48050000Y-28470000D01*
X48050000Y-28450000D01*
X46987500Y-28450000D01*
X46925000Y-28512500D01*
X46925000Y-28683578D01*
X46900000Y-28658578D01*
X46900000Y-27250000D01*
X47125272Y-27250000D01*
X47033386Y-27288060D01*
X46963060Y-27358386D01*
X46925000Y-27450272D01*
X46925000Y-27987500D01*
X46987500Y-28050000D01*
X48050000Y-28050000D01*
X48050000Y-27312500D01*
X47987500Y-27250000D01*
X48512500Y-27250000D01*
X48450000Y-27312500D01*
X48450000Y-28050000D01*
X49512500Y-28050000D01*
X49575000Y-27987500D01*
X49575000Y-27450272D01*
X49536940Y-27358386D01*
X49466614Y-27288060D01*
X49374728Y-27250000D01*
X48512500Y-27250000D01*
X47987500Y-27250000D01*
X47987500Y-27250000D01*
X47125272Y-27250000D01*
X46900000Y-27250000D01*
X46900000Y-25450000D01*
X53955682Y-25450000D01*
X54207102Y-25500010D01*
G36*
X52000000Y-34541422D02*
X52000000Y-35300000D01*
X52007612Y-35338269D01*
X52029289Y-35370711D01*
X52329289Y-35670711D01*
X52361731Y-35692388D01*
X52361732Y-35692388D01*
X52400000Y-35700000D01*
X54550000Y-35700000D01*
X54550000Y-36955682D01*
X54499990Y-37207101D01*
X54382676Y-37382675D01*
X54207102Y-37499990D01*
X53955682Y-37550000D01*
X46900000Y-37550000D01*
X46900000Y-34950000D01*
X46987500Y-34950000D01*
X46925000Y-35012500D01*
X46925000Y-35549728D01*
X46963060Y-35641614D01*
X47033386Y-35711940D01*
X47125272Y-35750000D01*
X47987500Y-35750000D01*
X48050000Y-35687500D01*
X48050000Y-34950000D01*
X48450000Y-34950000D01*
X48050000Y-34950000D01*
X48050000Y-34950000D01*
X48450000Y-34950000D01*
X48450000Y-35687500D01*
X48512500Y-35750000D01*
X49374728Y-35750000D01*
X49466614Y-35711940D01*
X49536940Y-35641614D01*
X49575000Y-35549728D01*
X49575000Y-35012500D01*
X49512500Y-34950000D01*
X48450000Y-34950000D01*
X48050000Y-34950000D01*
X48050000Y-34950000D01*
X46987500Y-34950000D01*
X46900000Y-34950000D01*
X46900000Y-34541422D01*
X46939461Y-34501961D01*
X46987500Y-34550000D01*
X48050000Y-34550000D01*
X48050000Y-34530000D01*
X48450000Y-34530000D01*
X48450000Y-34550000D01*
X49512500Y-34550000D01*
X49575000Y-34487500D01*
X49575000Y-34300000D01*
X51758578Y-34300000D01*
X52000000Y-34541422D01*
X52000000Y-34541422D01*
G37*
X52000000Y-34541422D02*
X52000000Y-35300000D01*
X52007612Y-35338269D01*
X52029289Y-35370711D01*
X52329289Y-35670711D01*
X52361731Y-35692388D01*
X52361732Y-35692388D01*
X52400000Y-35700000D01*
X54550000Y-35700000D01*
X54550000Y-36955682D01*
X54499990Y-37207101D01*
X54382676Y-37382675D01*
X54207102Y-37499990D01*
X53955682Y-37550000D01*
X46900000Y-37550000D01*
X46900000Y-34950000D01*
X46987500Y-34950000D01*
X46925000Y-35012500D01*
X46925000Y-35549728D01*
X46963060Y-35641614D01*
X47033386Y-35711940D01*
X47125272Y-35750000D01*
X47987500Y-35750000D01*
X48050000Y-35687500D01*
X48050000Y-34950000D01*
X48450000Y-34950000D01*
X48050000Y-34950000D01*
X48050000Y-34950000D01*
X48450000Y-34950000D01*
X48450000Y-35687500D01*
X48512500Y-35750000D01*
X49374728Y-35750000D01*
X49466614Y-35711940D01*
X49536940Y-35641614D01*
X49575000Y-35549728D01*
X49575000Y-35012500D01*
X49512500Y-34950000D01*
X48450000Y-34950000D01*
X48050000Y-34950000D01*
X48050000Y-34950000D01*
X46987500Y-34950000D01*
X46900000Y-34950000D01*
X46900000Y-34541422D01*
X46939461Y-34501961D01*
X46987500Y-34550000D01*
X48050000Y-34550000D01*
X48050000Y-34530000D01*
X48450000Y-34530000D01*
X48450000Y-34550000D01*
X49512500Y-34550000D01*
X49575000Y-34487500D01*
X49575000Y-34300000D01*
X51758578Y-34300000D01*
X52000000Y-34541422D01*
M02*
