G04 #@! TF.FileFunction,Soldermask,Top*
%FSLAX46Y46*%
G04 Gerber Fmt 4.6, Leading zero omitted, Abs format (unit mm)*
G04 Created by KiCad (PCBNEW (2015-07-01 BZR 5850)-product) date Thu Aug 27 19:34:36 2015*
%MOMM*%
G01*
G04 APERTURE LIST*
%ADD10C,0.050000*%
%ADD11C,0.100000*%
%ADD12C,1.200000*%
%ADD13R,4.300000X2.400000*%
%ADD14R,2.350000X2.770000*%
%ADD15R,1.250000X1.500000*%
%ADD16O,2.032000X1.727200*%
%ADD17R,2.032000X1.727200*%
%ADD18O,0.609600X1.473200*%
%ADD19R,1.300000X1.500000*%
%ADD20R,3.500120X1.800860*%
%ADD21C,4.500000*%
G04 APERTURE END LIST*
D10*
D11*
X28000000Y-37000000D02*
X28000000Y-26000000D01*
X54000000Y-38000000D02*
X29000000Y-38000000D01*
X55000000Y-26000000D02*
X55000000Y-37000000D01*
X29000000Y-25000000D02*
X54000000Y-25000000D01*
X55000000Y-26000000D02*
G75*
G03X54000000Y-25000000I-1000000J0D01*
G01*
X54000000Y-38000000D02*
G75*
G03X55000000Y-37000000I0J1000000D01*
G01*
X28000000Y-37000000D02*
G75*
G03X29000000Y-38000000I1000000J0D01*
G01*
X29000000Y-25000000D02*
G75*
G03X28000000Y-26000000I0J-1000000D01*
G01*
D12*
X33800000Y-34600000D03*
X50300000Y-33000000D03*
X48700000Y-33000000D03*
X36800000Y-29200000D03*
X39300000Y-30800000D03*
X33800000Y-36200000D03*
X39300000Y-29300000D03*
X36800000Y-30800000D03*
X45800000Y-30100000D03*
X44200000Y-30100000D03*
D13*
X49500000Y-36040000D03*
X49500000Y-30960000D03*
D14*
X45000000Y-27180000D03*
X45000000Y-32320000D03*
D15*
X42000000Y-31250000D03*
X42000000Y-28750000D03*
D16*
X53750000Y-34040000D03*
D17*
X53750000Y-31500000D03*
D16*
X53750000Y-28960000D03*
D18*
X39905000Y-27206000D03*
X38635000Y-27206000D03*
X37365000Y-27206000D03*
X36095000Y-27206000D03*
X36095000Y-32794000D03*
X37365000Y-32794000D03*
X38635000Y-32794000D03*
X39905000Y-32794000D03*
D19*
X34500000Y-31350000D03*
X34500000Y-28650000D03*
D20*
X36400640Y-35400000D03*
X41399360Y-35400000D03*
D12*
X38000000Y-30000000D03*
D21*
X31000000Y-31500000D03*
M02*
